<svg width="13" height="16" viewBox="0 0 13 16" fill="none" xmlns="http://www.w3.org/2000/svg">
<path d="M10.5 10.5L8.5 14C7.54856 15.4272 5.45144 15.4272 4.5 14L2.5 10.5L1.5 8L1.29536 7.18144C1.10144 6.40575 1.10245 5.59019 1.29637 4.8145C1.43066 4.27736 1.65699 3.76451 1.96411 3.30383C2.31787 2.7732 2.7732 2.31787 3.30383 1.96411L3.40519 1.89654C3.79997 1.63336 4.22807 1.42398 4.67819 1.27394C5.2225 1.0925 5.79251 1 6.36626 1H6.5H6.63374C7.20749 1 7.7775 1.0925 8.32181 1.27394C8.77193 1.42398 9.20003 1.63336 9.59481 1.89654L9.69617 1.96411C10.2268 2.31787 10.6821 2.7732 11.0359 3.30383C11.343 3.76451 11.5693 4.27736 11.7036 4.8145C11.8975 5.59019 11.8986 6.40575 11.7046 7.18144L11.5 8L10.5 10.5Z" stroke="black"/>
</svg>
