<svg width="96" height="70" viewBox="0 0 96 70" fill="none" xmlns="http://www.w3.org/2000/svg">
<path d="M2.0564 46.8502C1.22612 46.8502 0.627541 46.5122 0.260671 45.8361C0.0868902 45.4885 0 45.1408 0 44.7931C0 44.5999 0.0193089 44.4164 0.0579268 44.2426C2.00813 37.231 3.91972 30.2098 5.79268 23.1789C5.96646 22.5994 6.29472 22.1841 6.77744 21.933C7.125 21.7398 7.48222 21.6433 7.84909 21.6433C8.66006 21.6433 9.24898 21.9909 9.61585 22.6863C9.78963 23.0147 9.87652 23.3624 9.87652 23.7294C9.87652 24.2509 7.94563 31.4556 4.08384 45.3436L0.0579268 44.2426C0.579268 42.5042 1.31301 40.872 2.25915 39.3461C3.18598 37.8201 4.19004 36.3328 5.27134 34.8842L5.73476 34.2178C7.89736 31.1466 10.1758 28.172 12.5701 25.2939L12.7439 25.0911C13.3039 24.3957 13.9217 23.7294 14.5976 23.0919C15.6209 22.1648 16.7505 21.7012 17.9863 21.7012C18.7393 21.7012 19.4924 21.9523 20.2454 22.4545C21.0178 22.9374 21.5971 23.7197 21.9832 24.8014C22.2149 25.5547 22.3308 26.3466 22.3308 27.1772C22.3308 29.7848 21.6164 33.4741 20.1875 38.2451C19.8592 39.4233 19.6662 40.3215 19.6082 40.9396C19.5696 41.0169 19.531 41.5191 19.4924 42.4462L15.6113 41.3742C16.8857 39.5586 18.0056 37.6463 18.971 35.6375C19.9172 33.7445 20.9695 31.9095 22.128 30.1325C24.812 25.8444 27.0325 23.1209 28.7896 21.962C29.562 21.4404 30.4116 21.1797 31.3384 21.1797C32.7093 21.1797 33.8293 21.7495 34.6982 22.8891C35.3354 23.739 35.7409 24.6662 35.9146 25.6706C36.0305 26.4046 36.0884 27.1386 36.0884 27.8726C36.0884 29.3212 35.8664 30.7603 35.4223 32.1896C35.1519 33.194 34.843 34.1985 34.4954 35.2029C33.8968 36.9026 33.4817 38.3223 33.25 39.462L33.1341 40.1284C33.1148 40.167 33.1052 40.2346 33.1052 40.3312L33.0762 40.4471C33.0955 40.4471 33.1052 40.3795 33.1052 40.2443V40.3891L33.0762 40.476V41.0845C33.0569 41.0652 33.0473 41.0459 33.0473 41.0265C33.0473 40.9879 33.0376 40.9686 33.0183 40.9686L33.0473 40.9976C33.0473 41.0169 33.0473 41.0555 33.0473 41.1135C33.0666 41.1521 33.0859 41.1907 33.1052 41.2294C33.1245 41.268 33.1438 41.3066 33.1631 41.3453V41.4322C33.1438 41.4129 33.1245 41.3935 33.1052 41.3742C33.1052 41.3549 33.1052 41.3066 33.1052 41.2294L33.1631 41.3453C33.1438 41.3259 33.1245 41.3163 33.1052 41.3163C33.1052 41.297 33.0955 41.2776 33.0762 41.2583C33.0762 41.239 33.0762 41.2197 33.0762 41.2004L33.0473 41.1714L32.8735 40.9686L32.9024 40.9976C32.9217 41.0362 32.9411 41.0652 32.9604 41.0845C32.9797 41.0845 32.999 41.0845 33.0183 41.0845V41.1424L32.9024 41.0555H32.8735C32.9121 41.0941 32.9893 41.1135 33.1052 41.1135C33.1245 41.1135 33.1341 41.1231 33.1341 41.1424L32.9893 41.1135L33.1052 41.0845C33.1438 41.0845 33.1728 41.0941 33.1921 41.1135C33.5203 41.1135 33.81 41.0941 34.061 41.0555L33.9451 41.0845C33.9451 41.0652 33.9548 41.0555 33.9741 41.0555C33.9934 41.0555 34.0224 41.0459 34.061 41.0265C34.1961 41.0265 34.3023 41.0072 34.3796 40.9686C34.7658 40.8913 35.065 40.8044 35.2774 40.7078L35.596 40.5919L35.4802 40.6499C35.4802 40.6306 35.4995 40.6209 35.5381 40.6209C35.5767 40.6209 35.654 40.5823 35.7698 40.505C35.905 40.4278 36.0401 40.3602 36.1753 40.3022C36.909 39.9159 37.4014 39.5972 37.6524 39.3461H37.6814L37.5945 39.404L37.7973 39.2302H37.8262C38.8882 38.361 40.1433 37.0572 41.5915 35.3188C41.9583 34.9324 42.4024 34.7393 42.9238 34.7393H43.4451C43.7541 34.7586 44.1209 34.9518 44.5457 35.3188C44.9319 35.7051 45.125 36.1493 45.125 36.6515V37.1731C45.1057 37.4821 44.9126 37.8491 44.5457 38.2741C41.688 41.8475 38.753 44.0688 35.7409 44.938C34.9685 45.1698 34.1961 45.2856 33.4238 45.2856C31.2612 45.2856 29.842 44.3971 29.1662 42.6201C28.9924 42.002 28.9055 41.3839 28.9055 40.7658C28.9055 39.433 29.4848 37.0282 30.6433 33.5514C31.1646 32.0641 31.5605 30.6057 31.8308 29.1764L31.8598 29.0895L31.8887 28.8577L31.9177 28.1044C31.9177 27.5442 31.908 27.1289 31.8887 26.8585V26.7426C31.8694 26.7233 31.8598 26.6364 31.8598 26.4818L31.7149 26.1052L31.657 25.8154L31.7149 25.8734V25.9603L31.3674 25.3519V25.3229C31.3867 25.3229 31.406 25.3422 31.4253 25.3808C31.4639 25.4195 31.4832 25.4485 31.4832 25.4678C31.5025 25.4678 31.5122 25.4774 31.5122 25.4967H31.4253L31.1936 25.236C31.2129 25.236 31.2515 25.2553 31.3095 25.2939L31.3674 25.3808L31.3384 25.3519C31.2998 25.3326 31.2612 25.3229 31.2226 25.3229C31.2033 25.3036 31.1839 25.2939 31.1646 25.2939C31.1453 25.2746 31.1357 25.2553 31.1357 25.236C31.1357 25.2553 31.1453 25.265 31.1646 25.265C31.2033 25.265 31.2419 25.2746 31.2805 25.2939C31.3191 25.3132 31.3481 25.3326 31.3674 25.3519L31.2226 25.2939L31.3674 25.3229L31.5701 25.2939C31.3384 25.3519 31.2129 25.3905 31.1936 25.4098H31.1646C31.1646 25.3905 31.1646 25.3808 31.1646 25.3808C31.1839 25.3808 31.2226 25.3712 31.2805 25.3519C31.1839 25.3905 31.0971 25.4388 31.0198 25.4967C31.0005 25.4967 30.9715 25.5064 30.9329 25.5257C30.9136 25.545 30.8847 25.5643 30.846 25.5837C30.8074 25.603 30.7688 25.632 30.7302 25.6706C30.7109 25.6899 30.6916 25.6996 30.6723 25.6996L30.7302 25.6416C30.5371 25.7961 30.3537 25.9603 30.1799 26.1342C29.5427 26.8102 29.1082 27.3221 28.8765 27.6698L28.4421 28.2492C26.0091 31.5908 24.0107 34.8262 22.4466 37.9554C20.3613 42.3207 18.6717 44.5034 17.378 44.5034C16.7022 44.5034 16.1616 44.2329 15.7561 43.6921C15.4665 43.3058 15.3216 42.8905 15.3216 42.4462C15.4954 39.9738 15.9492 37.5594 16.6829 35.2029C17.4167 32.518 17.8415 30.712 17.9573 29.7848C17.9573 29.7076 17.9766 29.6303 18.0152 29.553V29.4371L17.9863 29.582C18.0828 28.9253 18.1311 27.9981 18.1311 26.8005L18.1021 26.5108V26.337L18.1311 26.3949V26.5688C18.0925 26.4915 18.0732 26.4046 18.0732 26.308L17.9573 25.9313L18.0442 26.1052C18.0056 26.0086 17.9477 25.912 17.8704 25.8154C17.909 25.8734 17.938 25.912 17.9573 25.9313C17.9766 25.9507 17.9863 25.97 17.9863 25.9893V25.9603C17.967 25.9603 17.9477 25.9507 17.9284 25.9313C17.909 25.912 17.8801 25.8831 17.8415 25.8444C17.8222 25.7865 17.8028 25.7478 17.7835 25.7285C17.8994 25.8058 17.9573 25.8541 17.9573 25.8734C17.938 25.8734 17.8897 25.8444 17.8125 25.7865L17.9863 25.8734H17.9284C17.8897 25.8734 17.8608 25.8637 17.8415 25.8444H17.9863C17.967 25.8637 17.938 25.8734 17.8994 25.8734L18.0732 25.7865L17.436 26.1631L17.5518 26.0762L17.2622 26.337C16.2774 27.2834 15.3699 28.3072 14.5396 29.4082L14.0762 30.0166C13.2073 31.079 11.5757 33.252 9.1814 36.5356L8.34146 37.6946C6.68089 39.9545 5.46443 41.9247 4.69207 43.6052L4.60518 43.779L4.66311 43.6631C4.41209 44.204 4.20935 44.7641 4.05488 45.3436C3.90041 45.9231 3.58181 46.3384 3.09909 46.5895C2.77083 46.7633 2.42327 46.8502 2.0564 46.8502Z" fill="#7DD3FC"/>
<path d="M47.471 45.8361L46.747 45.8072C44.372 45.5368 42.6921 44.2909 41.7073 42.0696C41.186 40.8913 40.9253 39.6938 40.9253 38.4769C40.9253 37.3179 41.1474 36.1493 41.5915 34.9711C43.6382 29.4661 46.3318 25.632 49.6723 23.4686C51.1977 22.4642 52.8582 21.962 54.654 21.962C55.2525 21.962 55.8704 22.0296 56.5076 22.1648C58.7861 22.6863 60.4563 23.9805 61.5183 26.0472C62.0203 27.0517 62.2713 28.143 62.2713 29.3212V32.3924C62.2713 32.3152 62.281 32.2765 62.3003 32.2765C62.3003 32.4697 62.3196 32.6339 62.3582 32.7691C62.4162 33.0009 62.4451 33.2037 62.4451 33.3775C62.4451 34.382 61.9431 35.058 60.939 35.4057C60.7459 35.4636 60.5528 35.4926 60.3598 35.4926C58.873 35.4926 58.1296 34.1695 58.1296 31.5232L58.0427 28.8287C58.0234 28.3651 57.9848 28.0561 57.9268 27.9015C57.9654 27.9595 57.9848 28.0271 57.9848 28.1044L57.6082 27.438H57.6662L57.7241 27.5828L57.5793 27.438C57.3283 27.1289 57.1159 26.9164 56.9421 26.8005C56.9421 26.8199 56.9517 26.8392 56.971 26.8585C56.9903 26.8585 57 26.8682 57 26.8875C57.0193 26.8875 57.0386 26.8875 57.0579 26.8875C57.0772 26.8875 57.0869 26.8971 57.0869 26.9164V26.8875C57.0483 26.8875 56.9324 26.8295 56.7393 26.7136C56.3918 26.5012 56.1697 26.3756 56.0732 26.337C56.1118 26.3756 56.1504 26.3949 56.189 26.3949C55.7063 26.2211 55.3587 26.1342 55.1463 26.1342L55.378 26.1631C55.0884 26.1631 54.8084 26.1535 54.5381 26.1342C54.3836 26.1148 54.2002 26.1245 53.9878 26.1631C53.3699 26.279 52.8969 26.4239 52.5686 26.5977C52.5686 26.5784 52.5783 26.5688 52.5976 26.5688C52.6169 26.5688 52.6265 26.5688 52.6265 26.5688C52.6458 26.5494 52.6748 26.5301 52.7134 26.5108C52.6362 26.5881 52.4817 26.6847 52.25 26.8005C51.9024 26.9744 51.5645 27.1675 51.2363 27.38C51.1977 27.4187 51.159 27.4476 51.1204 27.4669C51.1011 27.4669 51.0818 27.4766 51.0625 27.4959C51.0625 27.4959 51.0335 27.5249 50.9756 27.5828V27.5539L51.0915 27.4959C50.9756 27.5539 50.8308 27.6698 50.657 27.8436C50.1936 28.2492 49.7688 28.7031 49.3826 29.2053C49.3633 29.2053 49.344 29.215 49.3247 29.2343C49.3247 29.2536 49.315 29.273 49.2957 29.2923C49.2957 29.2923 49.2668 29.3309 49.2088 29.4082C49.2282 29.3695 49.2475 29.3502 49.2668 29.3502C49.2475 29.3502 49.2378 29.3599 49.2378 29.3792L48.9192 29.8428C47.8765 31.3687 46.9207 33.0975 46.0518 35.029L45.907 35.3477C45.4822 36.4101 45.2312 37.3179 45.154 38.0712L45.0671 39.1433C45.0671 39.2785 45.1636 39.6358 45.3567 40.2153L45.2988 40.1284C45.5691 40.6885 45.7236 40.9879 45.7622 41.0265C45.8201 41.0459 45.8587 41.0748 45.878 41.1135C45.8008 41.0169 45.7622 40.9493 45.7622 40.9106C45.7622 40.93 45.7622 40.9493 45.7622 40.9686C45.7815 40.9686 45.7912 40.9783 45.7912 40.9976C45.8105 41.0169 45.878 41.0845 45.9939 41.2004C46.2256 41.4322 46.3608 41.5481 46.3994 41.5481L46.3125 41.4901C46.3704 41.5287 46.409 41.5674 46.4284 41.606C46.467 41.6253 46.5539 41.664 46.689 41.7219C46.7276 41.7412 46.747 41.7605 46.747 41.7799C46.7276 41.7605 46.6987 41.7509 46.6601 41.7509C46.6214 41.7316 46.5925 41.7219 46.5732 41.7219C46.5732 41.7026 46.5635 41.6833 46.5442 41.664C46.6021 41.7219 46.7952 41.7895 47.1235 41.8668L46.9497 41.8378C47.2586 41.8378 47.4807 41.8281 47.6159 41.8088L47.4421 41.8378C47.8476 41.7026 48.0793 41.635 48.1372 41.635L48.0213 41.6929C48.4075 41.4998 48.784 41.2776 49.1509 41.0265C49.1702 41.0265 49.1895 41.0169 49.2088 40.9976C49.2475 40.9589 49.2957 40.93 49.3537 40.9106C49.5081 40.8141 49.5854 40.7465 49.5854 40.7078C49.5854 40.7271 49.5661 40.7561 49.5274 40.7948C53.7947 37.2407 57.6565 33.2616 61.1128 28.8577C61.4411 28.4327 61.8755 28.2203 62.4162 28.2203C62.9568 28.2203 63.4202 28.3748 63.8064 28.6838C64.3471 29.1474 64.6174 29.6689 64.6174 30.2484C64.6174 30.5961 64.5305 30.9631 64.3567 31.3494C64.1443 31.8516 63.9416 32.3635 63.7485 32.885C62.9568 35.1063 62.4355 36.9992 62.1845 38.5638H62.1555L62.1845 38.39C62.3003 39.3944 62.6286 40.1573 63.1692 40.6789L63.0823 40.6499H63.1402C63.3526 40.8624 63.6133 40.9686 63.9223 40.9686L63.7195 40.9976L63.9223 40.9396C65.6987 40.5533 67.282 39.8386 68.6723 38.7956H68.6433L68.5564 38.8825C70.3328 37.4531 72.9106 35.9852 75.0732 33.2037C75.3821 32.7981 75.1794 31.9578 75.6814 31.9578C75.7393 31.9578 75.9324 31.9675 76.2607 31.9868C76.5889 32.0061 76.5407 32.4987 76.9268 32.885C77.3323 33.252 77.9405 33.3872 77.9405 33.8701C77.9405 33.928 77.9309 34.1019 77.9116 34.3916C77.8923 34.6813 77.7088 35.0483 77.3613 35.4926C75.6235 37.8105 73.7698 39.829 71.8003 41.5481C69.908 43.2092 67.7358 44.2716 65.2835 44.7352C65.0711 44.7738 64.8394 44.8028 64.5884 44.8221C63.314 44.9766 62.03 44.6675 60.7363 43.8949C58.9212 42.7939 58.0137 41.1714 58.0137 39.0274C58.0137 38.2354 58.1103 37.4435 58.3034 36.6515C58.8826 34.1212 59.7033 31.6488 60.7652 29.2343L64.0381 31.784C60.8135 35.9175 57.2221 39.7034 53.2637 43.1416C51.159 44.9766 49.2282 45.8748 47.471 45.8361Z" fill="#7DD3FC"/>
<path d="M66.9636 43.4023C66.4808 43.4023 66.394 44.8316 65.8919 44.4453C65.4864 44.0397 65.2837 43.5085 65.2837 42.8518C65.2837 42.2916 65.4864 41.8377 65.8919 41.49C73.0169 35.9657 79.833 30.0648 86.3401 23.7872C86.7649 23.4009 87.2476 23.2077 87.7883 23.2077C88.3482 23.2077 88.8309 23.4105 89.2364 23.8162C89.6612 24.2025 89.8736 24.6854 89.8736 25.2648C89.8736 25.8443 89.6709 26.3369 89.2654 26.7425C82.7776 33.0201 78.0276 36.719 70.9026 42.2433C70.4199 42.6296 67.4656 43.4023 66.9636 43.4023ZM82.2563 44.822C81.4067 44.822 80.5667 44.6868 79.7364 44.4163C77.3614 43.5085 75.614 41.4997 74.4941 38.3898C73.5479 35.8209 72.8625 33.1843 72.4377 30.4801C72.0322 27.7566 71.7136 25.0427 71.4819 22.3385L71.4529 22.0198C71.4529 21.3824 71.6556 20.8802 72.0611 20.5132C72.4859 20.1462 72.9783 19.953 73.5383 19.9337C74.1562 19.9337 74.6389 20.1365 74.9864 20.5422C75.3533 20.9478 75.5657 21.4403 75.6236 22.0198L76.0581 26.2789L76.1739 27.3509L76.2319 27.5827V27.6407L76.2898 28.0753C76.7725 31.61 77.5256 34.7005 78.5489 37.3468L78.5779 37.3758V37.4627L78.6069 37.5206C78.6069 37.5786 78.6165 37.6365 78.6358 37.6945C78.6744 37.7331 78.7034 37.7524 78.7227 37.7524C78.8193 38.0035 78.9351 38.245 79.0703 38.4768C79.302 38.9017 79.4468 39.1528 79.5047 39.2301C79.5627 39.288 79.6013 39.346 79.6206 39.4039C80.0068 39.8289 80.2578 40.0703 80.3736 40.1283C80.3929 40.1283 80.4026 40.1379 80.4026 40.1572H80.3736L80.2288 40.0124L80.6053 40.2731C80.8564 40.3504 80.9819 40.418 80.9819 40.4759L80.837 40.418L81.2715 40.5049L81.8218 40.6498H81.677V40.6208L81.9666 40.6498C82.5652 40.6498 82.8838 40.6401 82.9224 40.6208C82.9803 40.6015 83.019 40.5822 83.0383 40.5629H83.0672L82.8645 40.6208L83.212 40.5339C83.5017 40.4952 83.8686 40.3987 84.3127 40.2441L84.6602 40.1283H84.6023C84.583 40.1476 84.554 40.1669 84.5154 40.1862C84.4961 40.1862 84.4768 40.1862 84.4575 40.1862C85.2684 39.8385 86.0601 39.3749 86.8325 38.7955L87.0642 38.6216C87.0449 38.6409 87.0256 38.6603 87.0063 38.6796C86.9869 38.6796 86.9676 38.6892 86.9483 38.7085C86.9483 38.7085 86.9387 38.7085 86.9194 38.7085C86.9387 38.7085 86.9676 38.6892 87.0063 38.6506C87.1028 38.554 87.3442 38.3609 87.7303 38.0711L88.9178 37.0281C90.9839 35.2124 92.3452 34.3046 93.0017 34.3046C93.774 34.3046 94.3919 34.6523 94.8553 35.3476C95.0484 35.676 95.145 36.014 95.145 36.3617C95.145 37.0957 94.7974 37.7138 94.1023 38.216L93.523 38.6216L93.3203 38.7955C93.3203 38.7762 93.3203 38.7665 93.3203 38.7665C93.3396 38.7665 93.3686 38.7472 93.4072 38.7085C92.8472 39.1528 92.2583 39.6454 91.6404 40.1862C90.1922 41.4997 88.7827 42.562 87.4117 43.3733C85.7126 44.3391 83.9941 44.822 82.2563 44.822Z" fill="#7DD3FC"/>
</svg>
