<svg width="626" height="1065" viewBox="0 0 626 1065" fill="none" xmlns="http://www.w3.org/2000/svg">
<path d="M625 18.1303V616.9C625 627.856 609.919 630.836 605.752 620.704L410.199 145.276C408.35 140.781 410.001 135.607 414.112 133.014L609.665 9.67219C616.324 5.47218 625 10.2575 625 18.1303Z" stroke="black"/>
<path d="M391.686 188.415L597.602 681.766C600.097 687.743 596.339 694.478 589.942 695.494L40.9892 782.667C32.6322 783.994 26.5069 774.988 30.8116 767.703L373.848 187.18C378.036 180.092 388.515 180.818 391.686 188.415Z" stroke="black"/>
<path d="M0.535301 830.578L1.42895 1047.73C1.46057 1055.42 9.79014 1060.2 16.441 1056.35L532.521 757.422C542.108 751.868 536.89 737.16 525.946 738.891L8.97296 820.66C4.09824 821.431 0.514992 825.643 0.535301 830.578Z" stroke="black"/>
</svg>
