<svg width="668" height="725" viewBox="0 0 668 725" fill="none" xmlns="http://www.w3.org/2000/svg">
<path d="M112.946 149.125L114.269 147.5L115.296 146.278M112.946 149.125L111.623 150.75L108.977 154L100.744 163L91.3349 175L86.6304 182L81.3378 191L74.8691 200.5L70.1646 208L66.0481 215.5L63.1078 221L60.7555 226.5L58.4033 232L56.839 235.192C55.9233 237.061 55.1679 239.004 54.5808 241V241L53.6987 244L51.3465 249.5L48.9942 254.5L47.23 260L44.8778 266.5L42.5255 274L40.1732 283.5L37.821 291L35.4687 302.5L33.1165 316L30.7642 336L29 362L30.1761 391.5L33.1165 409.5L35.4687 422.5L37.821 434L40.1732 441.5L41.1189 446.056C41.6636 448.681 42.4292 451.255 43.4076 453.75V453.75L44.8778 457.5L47.23 464.5L49.5823 470.5L51.9346 476.5L54.2868 482.5L56.6391 488L58.9913 492.5L61.3436 498L63.6959 502L66.0481 506.5L68.4004 510.5L70.7526 515L71.8646 516.655C72.6903 517.883 73.4213 519.173 74.0514 520.512V520.512C74.9856 522.498 76.1407 524.372 77.4947 526.099L77.8094 526.5L80.1617 530L82.514 533.5L84.8662 536.5L87.2185 540.5L88.7097 543.036C89.2797 544.005 90.0082 544.872 90.8648 545.601V545.601C91.5669 546.198 92.1837 546.888 92.6978 547.653L93.4677 548.799C94.0052 549.598 94.607 550.353 95.2673 551.055L95.3585 551.151C96.2019 552.048 96.9424 553.036 97.5663 554.097V554.097C98.502 555.688 99.6979 557.111 101.104 558.306L101.332 558.5L103.684 561L104.43 561.634C105.496 562.541 106.432 563.589 107.213 564.75L107.614 565.347C108.128 566.112 108.745 566.803 109.447 567.4V567.4C110.304 568.128 111.032 568.995 111.602 569.964L112.155 570.904C112.778 571.965 113.519 572.953 114.362 573.849L115.446 575L117.798 577L118.133 577.285C119.471 578.423 120.647 579.74 121.627 581.198V581.198C122.21 582.065 122.862 582.882 123.577 583.643L124.855 585L127.207 587L129.559 589L131.911 591L134.264 592.5L136.616 594.5L138.968 596.5L141.321 598.5L143.673 600.5L146.025 602.5L148.377 604.5L150.73 606.5L153.082 608.5L155.434 610.5L157.786 612.5L160.139 614.5L160.544 614.845C161.834 615.942 163.284 616.837 164.843 617.5V617.5C166.402 618.163 167.852 619.058 169.143 620.156L169.548 620.5L171.9 622.5L182.485 629.5L193.07 636L203.655 642L214.241 647.5L225.414 653L253.053 666L277.752 674.5L302.45 682L325.385 688L345.967 691.5L368.902 694.5L385.5 695.783L394.777 696.5C396.184 696.522 397.783 696.548 399.5 696.574C403.047 696.63 407.096 696.693 411 696.753M112.946 149.125L115.296 146.278M115.296 146.278V146.278C118.527 142.433 122.073 138.865 125.899 135.612L127.795 134L136.028 126L143.085 119.5L151.318 112L161.315 104.5L171.312 97.0002L181.309 90.5002L191.894 83.5002L202.479 76.5002L211.888 71.5002L221.297 67.0002L231.295 62.0002L243.644 56.5002L254.229 52.5002L268.931 47.0002L280.692 43.5002L292.453 40.5002L307.155 37.5002L320.092 35.0002L337.734 32.0002L355.964 29.0002L370.666 28.0002H384.78H402.422H418.299L434.765 29.0002L446.526 31.0002L456.524 33.0002L471.813 35.0002L486.515 39.0002L497.1 42.0002L505.921 45.5002L522.387 51.5002L537.089 58.5002L543.408 61.2944C548.989 63.7618 554.386 66.6263 559.556 69.8657V69.8657L562.963 72.0002L567.374 75.2502L571.784 78.5002L582.958 87.0002L592.367 95.5002L602.364 104.5L606.558 109.34C609.246 112.442 611.678 115.756 613.831 119.25V119.25L617.065 124.5L619.712 129.5L622.358 134.5L625.074 138.887C627.18 142.291 629.017 145.854 630.567 149.544V149.544L631.179 151L632.053 153.045L633.531 156.5L634.671 158.68C635.467 160.204 635.884 161.898 635.884 163.618V164.86C635.884 165.611 635.718 166.353 635.398 167.032V167.032C634.949 167.987 634.214 168.78 633.296 169.3L631.179 170.5L630.67 170.847C629.086 171.924 627.214 172.5 625.298 172.5V172.5H622.358H614.125H607.068L597.659 171.5L588.25 169.5L581.855 168.221L578.253 167.5L574.137 166.75V166.75C571.398 166.251 568.62 166 565.836 166H560.023H517.094H499.452L494.021 166.462C485.893 167.153 477.834 168.49 469.919 170.46V170.46C461.786 172.483 453.833 175.169 446.138 178.489L418.299 190.5L410.948 193.5V193.5C406.062 195.495 401.402 198.004 397.047 200.987L382.427 211L367.726 221L351.848 234.5L338.322 248L331.875 254.479C327.554 258.82 323.563 263.478 319.936 268.414V268.414L316.564 273L314.647 275.972L306.567 288.5L301.274 298L297.158 307L292.453 318L287.161 332L282.456 349.5L280.104 368V379.5V396L280.597 403.342C281.052 410.104 282.031 416.82 283.526 423.431V423.431L284.22 426.5L286.279 434.25L288.337 442L293.041 455.5L299.51 468.5L301.37 471.347C307.96 481.433 315.347 490.976 323.458 499.884L339.499 517.5L353.024 529.5L363.135 537.238C372.064 544.07 381.49 550.226 391.334 555.656L398.305 559.5L428.884 573.5L461.228 584.5L491.807 591L518.859 596L552.378 598.5H568.256H588.25L599.423 598L611.185 596.5L620.594 596L628.827 595.5L634.097 595.093C634.888 595.032 635.683 595.132 636.434 595.387L636.77 595.502C637.723 595.826 638.548 596.443 639.128 597.265V597.265C639.696 598.069 640 599.028 640 600.012V600.603C640 601.525 639.808 602.435 639.436 603.278L638.948 604.386C638.476 605.457 637.854 606.455 637.101 607.351L635.295 609.5L628.827 615.5L616.477 625.5L609.421 631.5L599.423 639.5L588.25 647.5L567.668 659L552.966 666L538.853 671.5L524.151 677.5L504.745 683.5L480.046 689.5L459.464 693L445.938 695.5C440.254 696 428.649 697 427.708 697C427.241 697 421.728 696.918 415 696.815" stroke="#7DD3FC" stroke-width="56" stroke-linecap="round"/>
</svg>
