<svg width="778" height="260" viewBox="0 0 778 260" fill="none" xmlns="http://www.w3.org/2000/svg">
<path d="M40 42C40 40.8954 40.8954 40 42 40H736C737.105 40 738 40.8954 738 42V218C738 219.105 737.105 220 736 220H42C40.8954 220 40 219.105 40 218V42Z" fill="#E5E5E5"/>
<path d="M700.066 157.927L697.061 160.861L702.929 166.871L705.934 163.937L700.066 157.927ZM707.822 162.093C709.482 160.473 709.513 157.814 707.893 156.154C706.272 154.494 703.613 154.463 701.954 156.083L707.822 162.093ZM705.934 163.937L707.822 162.093L701.954 156.083L700.066 157.927L705.934 163.937Z" fill="url(#paint0_linear_0_1)" fill-opacity="0.7"/>
<path d="M703.88 166.125C705.606 164.535 705.716 161.846 704.125 160.12C702.535 158.394 699.846 158.284 698.12 159.875L703.88 166.125ZM700.534 169.209L703.88 166.125L698.12 159.875L694.774 162.958L700.534 169.209Z" fill="url(#paint1_linear_0_1)"/>
<path d="M110.312 179.062C108.562 179.062 107.312 178.333 106.562 176.875C106.146 176.125 105.938 175.375 105.938 174.625C105.938 174.25 105.979 173.896 106.062 173.562C110.146 158.021 114.5 142.542 119.125 127.125L119.688 125.25C123.812 111.417 126.833 102.563 128.75 98.6875C131.042 93.8958 133.938 90.1875 137.438 87.5625C139.521 86.0208 141.688 85.25 143.938 85.25C147.812 85.25 150.229 87 151.188 90.5C151.438 91.5416 151.562 92.625 151.562 93.75C151.562 94.375 151.479 95.2917 151.312 96.5C150.854 100.958 149.583 105.396 147.5 109.813C142.833 119.813 134.75 129.208 123.25 138C112.875 146.042 101.417 153.25 88.875 159.625C88.4583 159.75 88.0417 159.812 87.625 159.812C86.875 159.812 86.0833 159.562 85.25 159.062C84.375 158.521 83.75 157.688 83.375 156.562C83.25 156.146 83.1875 155.729 83.1875 155.312C83.1875 154.562 83.4583 153.792 84 153C84.5417 152.208 85.375 151.604 86.5 151.188C89.6667 149.271 91.75 148.062 92.75 147.562C92.75 147.604 92.7083 147.646 92.625 147.688C92.5833 147.688 92.5417 147.688 92.5 147.688L92.4375 147.75L95.1875 146.563C102.688 141.938 109.729 137.167 116.312 132.25L116.188 132.375C116.188 132.333 116.188 132.313 116.188 132.313L116.438 132.125C116.604 132 116.708 131.938 116.75 131.938C117.042 131.729 117.312 131.5 117.562 131.25C123.021 126.958 127.75 122.479 131.75 117.813C132.083 117.479 132.438 117.063 132.812 116.563L133.062 116.25L132.875 116.5C135.083 113.625 137 110.708 138.625 107.75L139.688 105.5C139.771 105.417 139.812 105.313 139.812 105.188L139.688 105.5C139.812 105.292 139.917 105.063 140 104.813C141.083 102.104 141.854 99.3333 142.312 96.5L142.25 96.875C142.25 96.6667 142.271 96.4792 142.312 96.3125L142.375 95.3125L142.438 92.9375C142.438 92.4792 142.458 92.25 142.5 92.25C142.583 92.625 142.625 92.8542 142.625 92.9375C142.625 92.9792 142.625 93.0208 142.625 93.0625C142.667 93.0625 142.771 93.1458 142.938 93.3125C143.104 93.4375 143.25 93.5417 143.375 93.625L143.5 93.75L143.312 93.625C143.479 93.7917 143.75 93.9167 144.125 94C144.333 94 144.458 93.9792 144.5 93.9375H143.875L144.5 93.875L143.188 94.1875C143.188 94.1458 143.208 94.125 143.25 94.125C143.292 94.0833 143.354 94.0417 143.438 94H143.625C143.625 94.0833 143.521 94.1875 143.312 94.3125C143.104 94.4375 142.938 94.5208 142.812 94.5625C142.729 94.6042 142.667 94.625 142.625 94.625C142.625 94.5833 142.646 94.5625 142.688 94.5625C142.729 94.5208 142.771 94.4792 142.812 94.4375H142.875C142.875 94.5625 142.604 94.8125 142.062 95.1875C141.104 96.0625 140.417 96.7917 140 97.375L139.688 97.625L139.938 97.3125V97.375L139.625 97.75L138.625 99.1875C137.417 101.146 136.479 102.938 135.812 104.563L135.938 104.188V104.313L135.812 104.563C135.479 105.229 134.896 106.813 134.062 109.313C132.479 114.146 131.562 117.063 131.312 118.063C125.521 136.563 120 155.833 114.75 175.875C114.375 177.083 113.667 177.958 112.625 178.5C111.917 178.875 111.146 179.062 110.312 179.062ZM111.25 180.5C110.5 180.5 109.708 180.312 108.875 179.938C107.375 179.104 106.625 177.792 106.625 176C106.625 175.292 106.833 174.604 107.25 173.938L147.375 118.063C151.333 112.438 154.5 108.042 156.875 104.875C160.333 100.208 164.479 96.2292 169.312 92.9375C172.646 90.8125 175.812 89.75 178.812 89.75C182.438 89.9583 185.354 91.4792 187.562 94.3125C189.521 96.9375 190.5 99.7708 190.5 102.813L190.438 105.688C190.312 107.979 189.271 111.542 187.312 116.375C186.479 118.542 185.229 122.333 183.562 127.75L169.938 170.938C166.646 169.521 163.917 168.396 161.75 167.562L163.688 164.312C164.521 162.979 173.438 148.229 190.438 120.062L196.75 109.563C198.333 106.854 200.083 104.271 202 101.813C204.042 99.1875 206.5 97.1667 209.375 95.75C210.875 95.0417 212.438 94.6875 214.062 94.6875C215.562 94.6875 217.104 95 218.688 95.625C221.188 96.7917 222.979 98.4792 224.062 100.688C225.312 103.396 225.938 106.688 225.938 110.563C225.938 112.271 225.833 113.896 225.625 115.438C224.708 122.604 222.875 129.542 220.125 136.25L218 141.562C215 148.812 212.938 154.896 211.812 159.812C211.729 160.062 211.688 160.333 211.688 160.625L211.625 160.75L211.688 160.25L211.562 162V164.562L211.625 165.25C211.583 165.208 211.562 165.167 211.562 165.125C211.562 165.083 211.542 164.958 211.5 164.75L211.562 165.125C211.604 165.417 211.667 165.729 211.75 166.062C211.875 166.354 211.958 166.625 212 166.875L212.125 166.938V167.125C212.208 167.25 212.25 167.354 212.25 167.438L212.062 166.875L212.312 167.375C212.562 167.75 212.688 167.958 212.688 168C212.688 168.042 212.708 168.062 212.75 168.062C212.75 167.979 212.729 167.917 212.688 167.875C212.646 167.833 212.542 167.75 212.375 167.625C212.542 167.833 212.625 167.938 212.625 167.938C212.667 167.938 212.708 167.958 212.75 168C212.792 168.042 212.833 168.083 212.875 168.125C212.917 168.125 213.021 168.208 213.188 168.375L213 168.188L212.688 168.062C213.021 168.229 213.188 168.333 213.188 168.375C213.188 168.375 213.229 168.375 213.312 168.375C213.438 168.375 213.5 168.417 213.5 168.5L213.438 168.438C213.354 168.438 213.271 168.417 213.188 168.375C213.104 168.333 213.042 168.312 213 168.312C212.958 168.312 212.938 168.292 212.938 168.25L214.062 168.625C213.896 168.625 213.812 168.604 213.812 168.562H214.438L214.562 168.5C214.646 168.5 214.708 168.479 214.75 168.438C214.833 168.396 214.896 168.375 214.938 168.375C214.979 168.333 215.104 168.271 215.312 168.188V168.25L215.125 168.312C216.083 167.854 217.521 166.938 219.438 165.562C219.604 165.479 219.938 165.25 220.438 164.875L220.625 164.75H220.562L220.312 164.938L220.812 164.625C223.688 162.375 226.438 159.75 229.062 156.75C229.062 156.708 229.104 156.646 229.188 156.562C229.312 156.438 229.396 156.354 229.438 156.312C229.479 156.229 229.521 156.167 229.562 156.125C229.604 156.083 229.604 156.083 229.562 156.125L229.812 155.812C229.938 155.604 230.021 155.5 230.062 155.5C230.271 155.167 230.5 154.854 230.75 154.562C231.708 153.188 232.583 151.792 233.375 150.375C234.292 148.958 235.562 148.25 237.188 148.25C237.979 148.25 238.75 148.438 239.5 148.812C240.958 149.604 241.688 150.875 241.688 152.625C241.688 153.875 240.625 155.979 238.5 158.938C234.292 164.771 229.188 169.688 223.188 173.688C219.812 176.104 216.812 177.312 214.188 177.312C213.312 177.312 212.438 177.208 211.562 177C208.479 176.25 206.125 174.521 204.5 171.812C203.208 169.354 202.562 166.562 202.562 163.438C202.562 157.854 204.667 150.208 208.875 140.5L210 137.625C212.792 131.125 214.917 124.417 216.375 117.5C216.458 116.917 216.542 116.458 216.625 116.125L216.562 116.375V116.188C216.604 116.104 216.625 115.938 216.625 115.688C216.833 114.313 216.938 112.813 216.938 111.188C216.938 110.063 216.854 108.583 216.688 106.75V106.5C216.646 106.458 216.625 106.396 216.625 106.313L216.312 105.125V105.063L216.188 104.938L216.062 104.688L215.75 104.188L215.812 104.25C215.812 104.292 215.833 104.313 215.875 104.313L215.938 104.375C215.896 104.375 215.771 104.271 215.562 104.063C215.354 103.854 215.25 103.729 215.25 103.688L215.438 103.938L214.5 103.313C214.583 103.396 214.667 103.438 214.75 103.438C214.833 103.438 214.896 103.458 214.938 103.5H214.812L214.25 103.25L214.438 103.313H214.688L214.812 103.375C214.312 103.375 214.042 103.354 214 103.313H213.812C213.854 103.271 214.021 103.25 214.312 103.25C214.271 103.25 214.167 103.292 214 103.375C213.875 103.417 213.688 103.458 213.438 103.5L213.312 103.563H213.125L213.312 103.438H213.438L213.5 103.375V103.438H213.438L212.312 104.125C212.271 104.125 212.188 104.167 212.062 104.25C211.979 104.292 211.875 104.354 211.75 104.438C211.667 104.479 211.604 104.542 211.562 104.625L212 104.25L211.625 104.563C209.917 106.271 208.958 107.25 208.75 107.5C208.667 107.625 208.604 107.708 208.562 107.75C208.562 107.75 208.542 107.771 208.5 107.813C208.458 107.813 208.438 107.833 208.438 107.875L208.5 107.813C208.5 107.771 208.604 107.646 208.812 107.438C208.771 107.479 208.729 107.521 208.688 107.563C208.688 107.563 208.688 107.583 208.688 107.625C208.354 107.958 207.812 108.688 207.062 109.813C205.271 112.604 201.229 119.292 194.938 129.875L169.5 171.938C168.542 173.396 167.25 174.125 165.625 174.125C163.875 174.125 162.521 173.292 161.562 171.625C161.271 171.042 161.125 170.438 161.125 169.812C161.125 169.271 163.417 161.75 168 147.25C172.5 133.083 175 125.125 175.5 123.375C176.458 120.25 177.521 117.125 178.688 114C179.354 112.333 179.958 110.667 180.5 109L181.438 105.188V105.25C181.438 105.042 181.458 104.896 181.5 104.813L181.562 103.688C181.562 102.729 181.542 102.083 181.5 101.75C181.542 101.917 181.583 102.021 181.625 102.063V102.125C181.583 102.125 181.542 102.083 181.5 102C181.5 101.917 181.479 101.833 181.438 101.75C181.396 101.625 181.354 101.521 181.312 101.438C181.312 101.313 181.292 101.229 181.25 101.188C181.25 101.104 181.229 101 181.188 100.875C181.146 100.75 181.104 100.646 181.062 100.563C181.104 100.729 181.146 100.833 181.188 100.875C181.146 100.833 181.104 100.771 181.062 100.688C181.062 100.604 181.042 100.521 181 100.438C180.958 100.354 180.896 100.25 180.812 100.125C180.729 100 180.604 99.7708 180.438 99.4375H180.5C180.542 99.4792 180.562 99.5417 180.562 99.625C180.604 99.6667 180.646 99.6875 180.688 99.6875V99.75C180.604 99.75 180.521 99.6667 180.438 99.5C180.021 99.1667 179.812 98.9583 179.812 98.875L179.75 98.75C179.792 98.75 179.812 98.7708 179.812 98.8125C179.854 98.8125 179.917 98.8542 180 98.9375C180.083 98.9792 180.125 99.0208 180.125 99.0625L179.625 98.8125L179 98.375H179.125L179.375 98.5C179.375 98.5417 179.354 98.5625 179.312 98.5625C178.938 98.5625 178.75 98.5208 178.75 98.4375L179.25 98.5H178.625C178.458 98.5 178.375 98.4792 178.375 98.4375H178.688C178.062 98.5208 177.708 98.6042 177.625 98.6875C177.25 98.7708 176.896 98.875 176.562 99L176.812 98.875H176.875L176.438 99.125C175.812 99.375 174.75 99.9583 173.25 100.875C172.583 101.417 172.208 101.688 172.125 101.688L172.062 101.75L172.438 101.438C169.562 103.813 166.896 106.542 164.438 109.625C164.354 109.708 164.292 109.771 164.25 109.813C164.25 109.813 164.25 109.833 164.25 109.875L164.375 109.625V109.688L163.75 110.5C162 112.833 160.917 114.313 160.5 114.938C149.667 130.146 138.792 145.312 127.875 160.438L115 178.375C113.958 179.792 112.708 180.5 111.25 180.5Z" fill="url(#paint2_linear_0_1)"/>
<path d="M245.312 176.75L243.75 176.688C238.625 176.104 235 173.417 232.875 168.625C231.75 166.083 231.188 163.5 231.188 160.875C231.188 158.375 231.667 155.854 232.625 153.312C237.042 141.438 242.854 133.167 250.062 128.5C253.354 126.333 256.938 125.25 260.812 125.25C262.104 125.25 263.438 125.396 264.812 125.687C269.729 126.812 273.333 129.604 275.625 134.063C276.708 136.229 277.25 138.583 277.25 141.125V147.75C277.25 147.583 277.271 147.5 277.312 147.5C277.312 147.917 277.354 148.271 277.438 148.562C277.562 149.062 277.625 149.5 277.625 149.875C277.625 152.042 276.542 153.5 274.375 154.25C273.958 154.375 273.542 154.438 273.125 154.438C269.917 154.438 268.312 151.583 268.312 145.875L268.125 140.062C268.083 139.062 268 138.396 267.875 138.062C267.958 138.187 268 138.333 268 138.5L267.188 137.062H267.312L267.438 137.375L267.125 137.062C266.583 136.396 266.125 135.938 265.75 135.688C265.75 135.729 265.771 135.771 265.812 135.813C265.854 135.813 265.875 135.833 265.875 135.875C265.917 135.875 265.958 135.875 266 135.875C266.042 135.875 266.062 135.896 266.062 135.938V135.875C265.979 135.875 265.729 135.75 265.312 135.5C264.562 135.042 264.083 134.771 263.875 134.688C263.958 134.771 264.042 134.813 264.125 134.813C263.083 134.438 262.333 134.25 261.875 134.25L262.375 134.313C261.75 134.313 261.146 134.292 260.562 134.25C260.229 134.208 259.833 134.229 259.375 134.313C258.042 134.563 257.021 134.875 256.312 135.25C256.312 135.208 256.333 135.188 256.375 135.188C256.417 135.188 256.438 135.188 256.438 135.188C256.479 135.146 256.542 135.104 256.625 135.063C256.458 135.229 256.125 135.438 255.625 135.688C254.875 136.063 254.146 136.479 253.438 136.937C253.354 137.021 253.271 137.083 253.188 137.125C253.146 137.125 253.104 137.146 253.062 137.187C253.062 137.187 253 137.25 252.875 137.375V137.312L253.125 137.187C252.875 137.312 252.562 137.562 252.188 137.937C251.188 138.812 250.271 139.792 249.438 140.875C249.396 140.875 249.354 140.896 249.312 140.938C249.312 140.979 249.292 141.021 249.25 141.062C249.25 141.062 249.188 141.146 249.062 141.312C249.104 141.229 249.146 141.188 249.188 141.188C249.146 141.188 249.125 141.208 249.125 141.25L248.438 142.25C246.188 145.542 244.125 149.271 242.25 153.438L241.938 154.125C241.021 156.417 240.479 158.375 240.312 160L240.125 162.312C240.125 162.604 240.333 163.375 240.75 164.625L240.625 164.438C241.208 165.646 241.542 166.292 241.625 166.375C241.75 166.417 241.833 166.479 241.875 166.562C241.708 166.354 241.625 166.208 241.625 166.125C241.625 166.167 241.625 166.208 241.625 166.25C241.667 166.25 241.688 166.271 241.688 166.312C241.729 166.354 241.875 166.5 242.125 166.75C242.625 167.25 242.917 167.5 243 167.5L242.812 167.375C242.938 167.458 243.021 167.542 243.062 167.625C243.146 167.667 243.333 167.75 243.625 167.875C243.708 167.917 243.75 167.958 243.75 168C243.708 167.958 243.646 167.938 243.562 167.938C243.479 167.896 243.417 167.875 243.375 167.875C243.375 167.833 243.354 167.792 243.312 167.75C243.438 167.875 243.854 168.021 244.562 168.188L244.188 168.125C244.854 168.125 245.333 168.104 245.625 168.062L245.25 168.125C246.125 167.833 246.625 167.688 246.75 167.688L246.5 167.812C247.333 167.396 248.146 166.917 248.938 166.375C248.979 166.375 249.021 166.354 249.062 166.312C249.146 166.229 249.25 166.167 249.375 166.125C249.708 165.917 249.875 165.771 249.875 165.688C249.875 165.729 249.833 165.792 249.75 165.875C258.958 158.208 267.292 149.625 274.75 140.125C275.458 139.208 276.396 138.75 277.562 138.75C278.729 138.75 279.729 139.083 280.562 139.75C281.729 140.75 282.312 141.875 282.312 143.125C282.312 143.875 282.125 144.667 281.75 145.5C281.292 146.583 280.854 147.688 280.438 148.812C278.729 153.604 277.604 157.688 277.062 161.062H277L277.062 160.688C277.312 162.854 278.021 164.5 279.188 165.625L279 165.562H279.125C279.583 166.021 280.146 166.25 280.812 166.25L280.375 166.312L280.812 166.188C284.646 165.354 288.062 163.812 291.062 161.562H291L290.812 161.75C294.646 158.667 298.896 154.125 303.562 148.125C304.229 147.25 319.917 123.5 321 123.5C321.125 123.5 322.292 122.958 323 123C323.708 123.042 324.667 123.167 325.5 124C325.661 124.145 325.813 124.288 325.955 124.424C326.655 125.097 327.065 126.031 327 127V127C326.958 127.625 310.562 153.479 309.812 154.438C306.062 159.438 302.062 163.792 297.812 167.5C293.729 171.083 289.042 173.375 283.75 174.375C283.292 174.458 282.792 174.521 282.25 174.562C279.5 174.896 276.729 174.229 273.938 172.562C270.021 170.188 268.062 166.688 268.062 162.062C268.062 160.354 268.271 158.646 268.688 156.938C269.938 151.479 271.708 146.146 274 140.938L281.062 146.438C274.104 155.354 266.354 163.521 257.812 170.938C253.271 174.896 249.104 176.833 245.312 176.75Z" fill="url(#paint3_linear_0_1)"/>
<path d="M318.812 174.375C316.979 174.375 315.167 174.083 313.375 173.5C308.25 171.542 304.479 167.208 302.062 160.5C300.021 154.958 298.542 149.271 297.625 143.438C296.75 137.563 296.062 131.708 295.562 125.875L295.5 125.188C295.5 123.813 295.938 122.729 296.812 121.938C297.729 121.146 298.792 120.729 300 120.688C301.333 120.688 302.375 121.125 303.125 122C303.917 122.875 304.375 123.938 304.5 125.188L305.438 134.375L305.688 136.688L305.812 137.188V137.313L305.938 138.25C306.979 145.875 308.604 152.542 310.812 158.25L310.875 158.312V158.5L310.938 158.625C310.938 158.75 310.958 158.875 311 159C311.083 159.083 311.146 159.125 311.188 159.125C311.396 159.667 311.646 160.188 311.938 160.688C312.438 161.604 312.75 162.146 312.875 162.312C313 162.438 313.083 162.562 313.125 162.688C313.958 163.604 314.5 164.125 314.75 164.25C314.792 164.25 314.812 164.271 314.812 164.312H314.75L314.438 164L315.25 164.562C315.792 164.729 316.062 164.875 316.062 165L315.75 164.875L316.688 165.062L317.875 165.375H317.562V165.312L318.188 165.375C319.479 165.375 320.167 165.354 320.25 165.312C320.375 165.271 320.458 165.229 320.5 165.188H320.562L320.125 165.312L320.875 165.125C321.5 165.042 322.292 164.833 323.25 164.5L324 164.25H323.875C323.833 164.292 323.771 164.333 323.688 164.375C323.646 164.375 323.604 164.375 323.562 164.375C325.312 163.625 327.021 162.625 328.688 161.375L329.188 161C329.146 161.042 329.104 161.083 329.062 161.125C329.021 161.125 328.979 161.146 328.938 161.188C328.938 161.188 328.917 161.188 328.875 161.188C328.917 161.188 328.979 161.146 329.062 161.062C329.271 160.854 329.792 160.438 330.625 159.812L333.188 157.562C337.646 153.646 340.583 151.688 342 151.688C343.667 151.688 345 152.438 346 153.938C346.417 154.646 346.625 155.375 346.625 156.125C346.625 157.708 345.875 159.042 344.375 160.125L343.125 161L342.688 161.375C342.688 161.333 342.688 161.312 342.688 161.312C342.729 161.312 342.792 161.271 342.875 161.188C341.667 162.146 340.396 163.208 339.063 164.375C335.938 167.208 332.896 169.5 329.938 171.25C326.271 173.333 322.562 174.375 318.812 174.375Z" fill="url(#paint4_linear_0_1)"/>
<path d="M351.375 173.75C348.125 173.708 345.312 172.75 342.938 170.875C339.771 168.417 338.188 164.771 338.188 159.938C338.188 156.562 339.083 152.167 340.875 146.75L341.188 145.625C342.979 139.667 345.021 133.792 347.312 128C348.188 125.875 349.667 124.813 351.75 124.813C353.417 124.813 354.688 125.542 355.562 127C355.979 127.708 356.188 128.417 356.188 129.125C356.188 129.542 356.125 129.958 356 130.375C353.625 136.333 351.542 142.375 349.75 148.5L349.688 148.625C348.938 151.083 348.271 153.583 347.688 156.125C347.521 156.833 347.396 157.458 347.312 158C347.312 158.083 347.292 158.125 347.25 158.125L347.312 157.75C347.312 157.958 347.292 158.125 347.25 158.25L347.188 160.938L347.25 161.312L347.125 160.938L347.562 162.688L347.688 163.062L347.5 162.562C347.625 162.812 347.708 162.979 347.75 163.062C347.833 163.146 347.875 163.208 347.875 163.25C347.917 163.292 347.958 163.333 348 163.375C348.167 163.542 348.25 163.667 348.25 163.75L348 163.438V163.5C348.042 163.542 348.083 163.583 348.125 163.625C348.208 163.667 348.25 163.729 348.25 163.812C348.292 163.854 348.354 163.896 348.438 163.938C348.562 163.979 348.646 164.021 348.688 164.062C348.729 164.062 348.771 164.083 348.812 164.125L348.438 163.938L349.312 164.5C349.188 164.417 349.104 164.375 349.062 164.375C349.062 164.375 349.083 164.375 349.125 164.375L350.812 164.812L350.375 164.75H352.25L352.438 164.688C353.312 164.562 354.188 164.312 355.062 163.938L354.812 164.062L355 163.938C355.125 163.854 355.25 163.812 355.375 163.812C357.417 162.771 359.812 161.271 362.562 159.312L364.375 158L365 157.5C369.083 154.208 372.812 150.583 376.188 146.625C377.021 145.75 378.021 145.313 379.188 145.313C379.271 145.313 379.625 145.333 380.25 145.375C380.875 145.417 381.646 145.833 382.562 146.625C383.438 147.5 383.875 148.5 383.875 149.625C383.875 149.708 383.854 150.062 383.812 150.688C383.771 151.271 383.354 152.042 382.562 153C378.188 158.083 373.271 162.604 367.812 166.562C365.438 168.396 362.875 170.042 360.125 171.5C357.375 172.958 354.458 173.708 351.375 173.75ZM357.125 113.125C356.5 113.125 355.917 113 355.375 112.75C354.833 112.542 354.354 112.229 353.938 111.813L353.125 111C352.583 110.458 352.208 109.792 352 109L351.812 107.813C351.854 106.813 352.167 105.938 352.75 105.188C353.333 104.396 353.958 103.896 354.625 103.688C355.125 103.438 355.688 103.313 356.312 103.313C356.938 103.313 357.521 103.438 358.062 103.688C358.562 103.854 359.125 104.25 359.75 104.875C360.667 105.792 361.229 106.646 361.438 107.438L361.625 108.625C361.625 109.625 361.375 110.438 360.875 111.063L360.375 111.75C360 112.167 359.5 112.5 358.875 112.75C358.333 113 357.75 113.125 357.125 113.125Z" fill="url(#paint5_linear_0_1)"/>
<path d="M376.125 175.75C374.333 175.75 373.042 175.021 372.25 173.562C371.875 172.812 371.688 172.062 371.688 171.312C371.688 170.896 371.729 170.5 371.812 170.125C376.021 155 380.146 139.854 384.188 124.688C384.562 123.438 385.271 122.542 386.312 122C387.062 121.583 387.833 121.375 388.625 121.375C390.375 121.375 391.646 122.125 392.438 123.625C392.812 124.333 393 125.083 393 125.875C393 127 388.833 142.542 380.5 172.5L371.812 170.125C372.938 166.375 374.521 162.854 376.562 159.562C378.562 156.271 380.729 153.062 383.062 149.938L384.062 148.5C388.729 141.875 393.646 135.458 398.812 129.25L399.188 128.813C400.396 127.313 401.729 125.875 403.188 124.5C405.396 122.5 407.833 121.5 410.5 121.5C412.125 121.5 413.75 122.042 415.375 123.125C417.042 124.167 418.292 125.854 419.125 128.188C419.625 129.813 419.875 131.521 419.875 133.313C419.875 138.938 418.333 146.896 415.25 157.188C414.542 159.729 414.125 161.667 414 163C413.917 163.167 413.833 164.25 413.75 166.25L405.375 163.938C408.125 160.021 410.542 155.896 412.625 151.562C414.667 147.479 416.938 143.521 419.438 139.688C425.229 130.438 430.021 124.563 433.812 122.063C435.479 120.938 437.312 120.375 439.312 120.375C442.271 120.375 444.688 121.604 446.562 124.063C447.938 125.896 448.812 127.896 449.188 130.063C449.438 131.646 449.562 133.229 449.562 134.813C449.562 137.938 449.083 141.042 448.125 144.125C447.542 146.292 446.875 148.458 446.125 150.625C444.833 154.292 443.938 157.354 443.438 159.812L443.188 161.25C443.146 161.333 443.125 161.479 443.125 161.688L443.062 161.938C443.104 161.938 443.125 161.792 443.125 161.5V161.812L443.062 162V163.312C443.021 163.271 443 163.229 443 163.188C443 163.104 442.979 163.062 442.938 163.062L443 163.125C443 163.167 443 163.25 443 163.375C443.042 163.458 443.083 163.542 443.125 163.625C443.167 163.708 443.208 163.792 443.25 163.875V164.062C443.208 164.021 443.167 163.979 443.125 163.938C443.125 163.896 443.125 163.792 443.125 163.625L443.25 163.875C443.208 163.833 443.167 163.812 443.125 163.812C443.125 163.771 443.104 163.729 443.062 163.688C443.062 163.646 443.062 163.604 443.062 163.562L443 163.5L442.625 163.062L442.688 163.125C442.729 163.208 442.771 163.271 442.812 163.312C442.854 163.312 442.896 163.312 442.938 163.312V163.438L442.688 163.25H442.625C442.708 163.333 442.875 163.375 443.125 163.375C443.167 163.375 443.188 163.396 443.188 163.438L442.875 163.375L443.125 163.312C443.208 163.312 443.271 163.333 443.312 163.375C444.021 163.375 444.646 163.333 445.188 163.25L444.938 163.312C444.938 163.271 444.958 163.25 445 163.25C445.042 163.25 445.104 163.229 445.188 163.188C445.479 163.188 445.708 163.146 445.875 163.062C446.708 162.896 447.354 162.708 447.812 162.5L448.5 162.25L448.25 162.375C448.25 162.333 448.292 162.312 448.375 162.312C448.458 162.312 448.625 162.229 448.875 162.062C449.167 161.896 449.458 161.75 449.75 161.625C451.333 160.792 452.396 160.104 452.938 159.562H453L452.812 159.688L453.25 159.312H453.312C455.604 157.438 458.312 154.625 461.438 150.875C462.229 150.042 463.188 149.625 464.312 149.625H465.438C466.104 149.667 466.896 150.083 467.812 150.875C468.646 151.708 469.062 152.667 469.062 153.75V154.875C469.021 155.542 468.604 156.333 467.812 157.25C461.646 164.958 455.312 169.75 448.812 171.625C447.146 172.125 445.479 172.375 443.812 172.375C439.146 172.375 436.083 170.458 434.625 166.625C434.25 165.292 434.062 163.958 434.062 162.625C434.062 159.75 435.312 154.563 437.812 147.063C438.938 143.854 439.792 140.708 440.375 137.625L440.438 137.438L440.5 136.938L440.562 135.313C440.562 134.104 440.542 133.208 440.5 132.625V132.375C440.458 132.333 440.438 132.146 440.438 131.813L440.125 131L440 130.375L440.125 130.5V130.688L439.375 129.375V129.313C439.417 129.313 439.458 129.354 439.5 129.438C439.583 129.521 439.625 129.583 439.625 129.625C439.667 129.625 439.688 129.646 439.688 129.688H439.5L439 129.125C439.042 129.125 439.125 129.167 439.25 129.25L439.375 129.438L439.312 129.375C439.229 129.333 439.146 129.313 439.062 129.313C439.021 129.271 438.979 129.25 438.938 129.25C438.896 129.208 438.875 129.167 438.875 129.125C438.875 129.167 438.896 129.188 438.938 129.188C439.021 129.188 439.104 129.208 439.188 129.25C439.271 129.292 439.333 129.333 439.375 129.375L439.062 129.25L439.375 129.313L439.812 129.25C439.312 129.375 439.042 129.458 439 129.5H438.938C438.938 129.458 438.938 129.438 438.938 129.438C438.979 129.438 439.062 129.417 439.188 129.375C438.979 129.458 438.792 129.563 438.625 129.688C438.583 129.688 438.521 129.708 438.438 129.75C438.396 129.792 438.333 129.833 438.25 129.875C438.167 129.917 438.083 129.979 438 130.063C437.958 130.104 437.917 130.125 437.875 130.125L438 130C437.583 130.333 437.188 130.688 436.812 131.063C435.438 132.521 434.5 133.625 434 134.375L433.062 135.625C427.812 142.833 423.5 149.812 420.125 156.562C415.625 165.979 411.979 170.688 409.188 170.688C407.729 170.688 406.562 170.104 405.688 168.938C405.062 168.104 404.75 167.208 404.75 166.25C405.125 160.917 406.104 155.708 407.688 150.625C409.271 144.833 410.188 140.938 410.438 138.938C410.438 138.771 410.479 138.604 410.562 138.438V138.188L410.5 138.5C410.708 137.083 410.812 135.083 410.812 132.5L410.75 131.875V131.5L410.812 131.625V132C410.729 131.833 410.688 131.646 410.688 131.438L410.438 130.625L410.625 131C410.542 130.792 410.417 130.583 410.25 130.375C410.333 130.5 410.396 130.583 410.438 130.625C410.479 130.667 410.5 130.708 410.5 130.75V130.688C410.458 130.688 410.417 130.667 410.375 130.625C410.333 130.583 410.271 130.521 410.188 130.438C410.146 130.313 410.104 130.229 410.062 130.188C410.312 130.354 410.438 130.458 410.438 130.5C410.396 130.5 410.292 130.438 410.125 130.313L410.5 130.5H410.375C410.292 130.5 410.229 130.479 410.188 130.438H410.5C410.458 130.479 410.396 130.5 410.312 130.5L410.688 130.313L409.312 131.125L409.562 130.938L408.938 131.5C406.812 133.542 404.854 135.75 403.062 138.125L402.062 139.438C400.188 141.729 396.667 146.417 391.5 153.5L389.688 156C386.104 160.875 383.479 165.125 381.812 168.75L381.625 169.125L381.75 168.875C381.208 170.042 380.771 171.25 380.438 172.5C380.104 173.75 379.417 174.646 378.375 175.188C377.667 175.562 376.917 175.75 376.125 175.75Z" fill="url(#paint6_linear_0_1)"/>
<path d="M472.375 173.75C469.125 173.708 466.312 172.75 463.938 170.875C460.771 168.417 459.188 164.771 459.188 159.938C459.188 156.562 460.083 152.167 461.875 146.75L462.188 145.625C463.979 139.667 466.021 133.792 468.312 128C469.188 125.875 470.667 124.813 472.75 124.813C474.417 124.813 475.688 125.542 476.562 127C476.979 127.708 477.188 128.417 477.188 129.125C477.188 129.542 477.125 129.958 477 130.375C474.625 136.333 472.542 142.375 470.75 148.5L470.688 148.625C469.938 151.083 469.271 153.583 468.688 156.125C468.521 156.833 468.396 157.458 468.312 158C468.312 158.083 468.292 158.125 468.25 158.125L468.312 157.75C468.312 157.958 468.292 158.125 468.25 158.25L468.188 160.938L468.25 161.312L468.125 160.938L468.562 162.688L468.688 163.062L468.5 162.562C468.625 162.812 468.708 162.979 468.75 163.062C468.833 163.146 468.875 163.208 468.875 163.25C468.917 163.292 468.958 163.333 469 163.375C469.167 163.542 469.25 163.667 469.25 163.75L469 163.438V163.5C469.042 163.542 469.083 163.583 469.125 163.625C469.208 163.667 469.25 163.729 469.25 163.812C469.292 163.854 469.354 163.896 469.438 163.938C469.562 163.979 469.646 164.021 469.688 164.062C469.729 164.062 469.771 164.083 469.812 164.125L469.438 163.938L470.312 164.5C470.188 164.417 470.104 164.375 470.062 164.375C470.062 164.375 470.083 164.375 470.125 164.375L471.812 164.812L471.375 164.75H473.25L473.438 164.688C474.312 164.562 475.188 164.312 476.062 163.938L475.812 164.062L476 163.938C476.125 163.854 476.25 163.812 476.375 163.812C478.417 162.771 480.812 161.271 483.562 159.312L485.375 158L486 157.5C490.083 154.208 493.812 150.583 497.188 146.625C498.021 145.75 499.021 145.313 500.188 145.313C500.271 145.313 500.625 145.333 501.25 145.375C501.875 145.417 502.646 145.833 503.562 146.625C504.438 147.5 504.875 148.5 504.875 149.625C504.875 149.708 504.854 150.062 504.812 150.688C504.771 151.271 504.354 152.042 503.562 153C499.188 158.083 494.271 162.604 488.812 166.562C486.438 168.396 483.875 170.042 481.125 171.5C478.375 172.958 475.458 173.708 472.375 173.75ZM478.125 113.125C477.5 113.125 476.917 113 476.375 112.75C475.833 112.542 475.354 112.229 474.938 111.813L474.125 111C473.583 110.458 473.208 109.792 473 109L472.812 107.813C472.854 106.813 473.167 105.938 473.75 105.188C474.333 104.396 474.958 103.896 475.625 103.688C476.125 103.438 476.688 103.313 477.312 103.313C477.938 103.313 478.521 103.438 479.062 103.688C479.562 103.854 480.125 104.25 480.75 104.875C481.667 105.792 482.229 106.646 482.438 107.438L482.625 108.625C482.625 109.625 482.375 110.438 481.875 111.063L481.375 111.75C481 112.167 480.5 112.5 479.875 112.75C479.333 113 478.75 113.125 478.125 113.125Z" fill="url(#paint7_linear_0_1)"/>
<path d="M514.188 174.062C512.271 174.062 510.333 173.771 508.375 173.188C504.417 171.896 501.479 169.396 499.562 165.688C498.271 162.688 497.625 159.583 497.625 156.375C497.625 152.458 498.417 147.604 500 141.813C503.167 128.479 507.562 115.979 513.188 104.313C517.021 96.0625 521.458 89.7083 526.5 85.25C529.61 82.5 535 82.5 535 82.5H541C546.5 83.125 548.625 83.6875 550.375 88.5625C550.833 89.9792 551.062 91.3958 551.062 92.8125C551.062 97.1458 548.979 103.375 544.812 111.5C537.229 126.375 525.562 139.146 509.812 149.812C509.104 150.229 508.375 150.438 507.625 150.438C505.958 150.438 504.625 149.688 503.625 148.188C503.208 147.479 503 146.75 503 146C503 144.375 503.771 143.042 505.312 142C506.854 140.917 508.396 139.792 509.938 138.625C509.979 138.625 510.042 138.604 510.125 138.563C510.208 138.479 510.271 138.438 510.312 138.438C510.354 138.396 510.5 138.271 510.75 138.063L510.562 138.188C510.688 138.063 511.042 137.792 511.625 137.375C514.417 135.083 516.583 133.208 518.125 131.75C521.375 128.667 524.646 125.167 527.938 121.25L528.875 120V120.063L528.688 120.25C528.688 120.208 528.729 120.167 528.812 120.125L529.188 119.563C533.188 114.271 536.604 108.333 539.438 101.75C539.479 101.583 539.542 101.438 539.625 101.313C539.708 101.146 539.792 100.979 539.875 100.813L539.938 100.563V100.688L539.812 100.813L539.938 100.563C540.854 98.3958 541.5 96.375 541.875 94.5C541.958 94.25 542 94 542 93.75V94.1875H541.938L542 92.5625C542 92.0208 541.979 91.75 541.938 91.75L542 91.9375V92.25H542.062C542.062 92 542 91.8333 541.875 91.75C541.875 91.625 541.854 91.5417 541.812 91.5C541.812 91.4167 541.792 91.3333 541.75 91.25C541.708 91.1667 541.688 91.0833 541.688 91L541.875 91.375L541.688 91.0625C541.521 90.8958 541.438 90.75 541.438 90.625C541.479 90.625 541.542 90.6875 541.625 90.8125L540.688 89.875C540.688 89.9583 540.771 90.0417 540.938 90.125C540.604 89.875 540.396 89.7292 540.312 89.6875C540.229 89.6458 540.188 89.6042 540.188 89.5625H540.312L540.375 89.625L538.625 89.1875H538.688C538.771 89.2292 538.917 89.25 539.125 89.25C538.375 89.25 537.729 89.2708 537.188 89.3125L537.5 89.25C537.417 89.3333 537.25 89.375 537 89.375C536.792 89.4583 536.646 89.5 536.562 89.5C536.521 89.5 536.458 89.5208 536.375 89.5625C536.292 89.6042 536.208 89.625 536.125 89.625L535.688 89.8125L535.938 89.6875L535.438 89.9375C535.021 90.1458 534.625 90.375 534.25 90.625C534.042 90.7917 533.812 90.9375 533.562 91.0625L533.375 91.125L533.625 90.9375C533.5 91.0625 533.396 91.1667 533.312 91.25C533.229 91.2917 533.188 91.3333 533.188 91.375C531.396 92.8333 529.833 94.4375 528.5 96.1875L528.375 96.375H528.312L528.125 96.625L528 96.8125C526.25 99.0625 524.542 101.792 522.875 105C520.917 108.792 519.104 112.688 517.438 116.688L517.25 117.188L517.375 116.813V116.938L516.625 118.625C512.75 128.458 509.583 139.271 507.125 151.062C507.083 151.438 507.021 151.792 506.938 152.125V152.5L506.875 152.688L506.938 152.188C506.938 152.438 506.917 152.562 506.875 152.562C506.75 153.854 506.688 155.146 506.688 156.438C506.688 157.271 506.729 158.083 506.812 158.875V159L506.75 158.875V158.812C506.792 158.812 506.812 158.917 506.812 159.125C507.104 160.5 507.333 161.271 507.5 161.438C507.5 161.521 507.542 161.604 507.625 161.688C507.5 161.688 507.438 161.562 507.438 161.312H507.375L507.438 161.375C507.438 161.417 507.438 161.479 507.438 161.562C507.479 161.604 507.583 161.729 507.75 161.938C507.917 162.146 508.042 162.375 508.125 162.625L508.188 162.75V162.688C508.146 162.688 508.104 162.667 508.062 162.625C508.062 162.583 508.042 162.542 508 162.5C508 162.417 507.958 162.375 507.875 162.375L509.188 163.688C509.146 163.688 509.021 163.583 508.812 163.375L509.312 163.75L510.688 164.5C510.562 164.5 510.417 164.438 510.25 164.312H510.188C510.229 164.354 510.333 164.396 510.5 164.438L511.062 164.625L512.312 164.938C512.521 164.938 512.667 164.958 512.75 165H512.938V165.062C512.896 165.062 512.833 165.062 512.75 165.062C512.667 165.021 512.604 164.979 512.562 164.938H512.375C512.542 165.062 512.792 165.125 513.125 165.125C513.875 165.125 514.333 165.083 514.5 165C515.167 165 515.562 164.979 515.688 164.938H515.875L515.812 165H515.625L515.75 164.938H515.938C517.354 164.729 518.688 164.354 519.938 163.812C520.146 163.729 520.292 163.688 520.375 163.688L519.938 163.875L520.062 163.812C520.146 163.729 520.229 163.688 520.312 163.688C520.396 163.646 520.479 163.604 520.562 163.562C522.521 162.729 525.979 160.417 530.938 156.625C531.062 156.458 531.229 156.333 531.438 156.25C531.312 156.375 531.208 156.438 531.125 156.438V156.5C531.333 156.333 531.458 156.25 531.5 156.25C531.542 156.208 531.583 156.146 531.625 156.062L532.375 155.5C537.708 151.125 541.229 147.729 542.938 145.313C543.021 145.271 543.083 145.208 543.125 145.125C543.167 145.042 543.208 145 543.25 145C543.292 144.958 543.312 144.917 543.312 144.875L543.188 145.063L543.375 144.813C544.458 143.354 545.729 142.625 547.188 142.625C547.896 142.625 548.667 142.813 549.5 143.188C551.042 144.104 551.812 145.458 551.812 147.25C551.812 148 551.583 148.708 551.125 149.375C549.833 151.083 548.458 152.729 547 154.312C541.542 159.938 535.5 164.854 528.875 169.062C525.875 171.062 522.604 172.521 519.062 173.438C517.438 173.854 515.812 174.062 514.188 174.062Z" fill="url(#paint8_linear_0_1)"/>
<path d="M554.875 173.75C551.625 173.708 548.812 172.75 546.438 170.875C543.271 168.417 541.688 164.771 541.688 159.938C541.688 156.562 542.583 152.167 544.375 146.75L544.688 145.625C546.479 139.667 548.521 133.792 550.812 128C551.688 125.875 553.167 124.813 555.25 124.813C556.917 124.813 558.188 125.542 559.062 127C559.479 127.708 559.688 128.417 559.688 129.125C559.688 129.542 559.625 129.958 559.5 130.375C557.125 136.333 555.042 142.375 553.25 148.5L553.188 148.625C552.438 151.083 551.771 153.583 551.188 156.125C551.021 156.833 550.896 157.458 550.812 158C550.812 158.083 550.792 158.125 550.75 158.125L550.812 157.75C550.812 157.958 550.792 158.125 550.75 158.25L550.688 160.938L550.75 161.312L550.625 160.938L551.062 162.688L551.188 163.062L551 162.562C551.125 162.812 551.208 162.979 551.25 163.062C551.333 163.146 551.375 163.208 551.375 163.25C551.417 163.292 551.458 163.333 551.5 163.375C551.667 163.542 551.75 163.667 551.75 163.75L551.5 163.438V163.5C551.542 163.542 551.583 163.583 551.625 163.625C551.708 163.667 551.75 163.729 551.75 163.812C551.792 163.854 551.854 163.896 551.938 163.938C552.062 163.979 552.146 164.021 552.188 164.062C552.229 164.062 552.271 164.083 552.312 164.125L551.938 163.938L552.812 164.5C552.688 164.417 552.604 164.375 552.562 164.375C552.562 164.375 552.583 164.375 552.625 164.375L554.312 164.812L553.875 164.75H555.75L555.938 164.688C556.812 164.562 557.688 164.312 558.562 163.938L558.312 164.062L558.5 163.938C558.625 163.854 558.75 163.812 558.875 163.812C560.917 162.771 563.312 161.271 566.062 159.312L567.875 158L568.5 157.5C572.583 154.208 576.312 150.583 579.688 146.625C580.521 145.75 581.521 145.313 582.688 145.313C582.771 145.313 583.125 145.333 583.75 145.375C584.375 145.417 585.146 145.833 586.062 146.625C586.938 147.5 587.375 148.5 587.375 149.625C587.375 149.708 587.354 150.062 587.312 150.688C587.271 151.271 586.854 152.042 586.062 153C581.688 158.083 576.771 162.604 571.312 166.562C568.938 168.396 566.375 170.042 563.625 171.5C560.875 172.958 557.958 173.708 554.875 173.75ZM560.625 113.125C560 113.125 559.417 113 558.875 112.75C558.333 112.542 557.854 112.229 557.438 111.813L556.625 111C556.083 110.458 555.708 109.792 555.5 109L555.312 107.813C555.354 106.813 555.667 105.938 556.25 105.188C556.833 104.396 557.458 103.896 558.125 103.688C558.625 103.438 559.188 103.313 559.812 103.313C560.438 103.313 561.021 103.438 561.562 103.688C562.062 103.854 562.625 104.25 563.25 104.875C564.167 105.792 564.729 106.646 564.938 107.438L565.125 108.625C565.125 109.625 564.875 110.438 564.375 111.063L563.875 111.75C563.5 112.167 563 112.5 562.375 112.75C561.833 113 561.25 113.125 560.625 113.125Z" fill="url(#paint9_linear_0_1)"/>
<path d="M592.875 173.562L591.312 173.5C586.188 172.917 582.562 170.229 580.438 165.438C579.312 162.896 578.75 160.312 578.75 157.688C578.75 155.188 579.229 152.667 580.188 150.125C584.604 138.25 590.417 129.979 597.625 125.313C600.917 123.146 604.5 122.063 608.375 122.063C609.667 122.063 611 122.208 612.375 122.5C617.292 123.625 620.896 126.417 623.188 130.875C624.271 133.042 624.812 135.396 624.812 137.938V144.563C624.812 144.396 624.833 144.313 624.875 144.313C624.875 144.729 624.917 145.083 625 145.375C625.125 145.875 625.188 146.313 625.188 146.688C625.188 148.854 624.104 150.312 621.938 151.062C621.521 151.188 621.104 151.25 620.688 151.25C617.479 151.25 615.875 148.396 615.875 142.688L615.688 136.875C615.646 135.875 615.562 135.208 615.438 134.875C615.521 135 615.562 135.146 615.562 135.313L614.75 133.875H614.875L615 134.188L614.688 133.875C614.146 133.208 613.688 132.75 613.312 132.5C613.312 132.542 613.333 132.583 613.375 132.625C613.417 132.625 613.438 132.646 613.438 132.688C613.479 132.688 613.521 132.688 613.562 132.688C613.604 132.688 613.625 132.708 613.625 132.75V132.688C613.542 132.688 613.292 132.563 612.875 132.313C612.125 131.854 611.646 131.583 611.438 131.5C611.521 131.583 611.604 131.625 611.688 131.625C610.646 131.25 609.896 131.063 609.438 131.063L609.938 131.125C609.312 131.125 608.708 131.104 608.125 131.063C607.792 131.021 607.396 131.042 606.938 131.125C605.604 131.375 604.583 131.688 603.875 132.063C603.875 132.021 603.896 132 603.938 132C603.979 132 604 132 604 132C604.042 131.958 604.104 131.917 604.188 131.875C604.021 132.042 603.688 132.25 603.188 132.5C602.438 132.875 601.708 133.292 601 133.75C600.917 133.833 600.833 133.896 600.75 133.938C600.708 133.938 600.667 133.958 600.625 134C600.625 134 600.562 134.063 600.438 134.188V134.125L600.688 134C600.438 134.125 600.125 134.375 599.75 134.75C598.75 135.625 597.833 136.604 597 137.688C596.958 137.688 596.917 137.708 596.875 137.75C596.875 137.792 596.854 137.833 596.812 137.875C596.812 137.875 596.75 137.958 596.625 138.125C596.667 138.042 596.708 138 596.75 138C596.708 138 596.688 138.021 596.688 138.063L596 139.063C593.75 142.354 591.688 146.083 589.812 150.25L589.5 150.938C588.583 153.229 588.042 155.188 587.875 156.812L587.688 159.125C587.688 159.417 587.896 160.188 588.312 161.438L588.188 161.25C588.771 162.458 589.104 163.104 589.188 163.188C589.312 163.229 589.396 163.292 589.438 163.375C589.271 163.167 589.188 163.021 589.188 162.938C589.188 162.979 589.188 163.021 589.188 163.062C589.229 163.062 589.25 163.083 589.25 163.125C589.292 163.167 589.438 163.312 589.688 163.562C590.188 164.062 590.479 164.312 590.562 164.312L590.375 164.188C590.5 164.271 590.583 164.354 590.625 164.438C590.708 164.479 590.896 164.562 591.188 164.688C591.271 164.729 591.312 164.771 591.312 164.812C591.271 164.771 591.208 164.75 591.125 164.75C591.042 164.708 590.979 164.688 590.938 164.688C590.938 164.646 590.917 164.604 590.875 164.562C591 164.688 591.417 164.833 592.125 165L591.75 164.938C592.417 164.938 592.896 164.917 593.188 164.875L592.812 164.938C593.688 164.646 594.188 164.5 594.312 164.5L594.062 164.625C594.896 164.208 595.708 163.729 596.5 163.188C596.542 163.188 596.583 163.167 596.625 163.125C596.708 163.042 596.812 162.979 596.938 162.938C597.271 162.729 597.438 162.583 597.438 162.5C597.438 162.542 597.396 162.604 597.312 162.688C606.521 155.021 614.854 146.438 622.312 136.938C623.021 136.021 623.958 135.563 625.125 135.563C626.292 135.563 627.292 135.896 628.125 136.563C629.292 137.563 629.875 138.688 629.875 139.938C629.875 140.688 629.688 141.479 629.312 142.313C628.854 143.396 628.417 144.5 628 145.625C626.292 150.417 625.167 154.5 624.625 157.875H624.562L624.625 157.5C624.875 159.667 625.583 161.312 626.75 162.438L626.562 162.375H626.688C627.146 162.833 627.708 163.062 628.375 163.062L627.938 163.125L628.375 163C632.208 162.167 635.625 160.625 638.625 158.375H638.562L638.375 158.562C642.208 155.479 646.458 150.938 651.125 144.938C651.792 144.063 652.667 143.625 653.75 143.625C653.875 143.625 654.292 143.646 655 143.688C655.708 143.729 656.479 144.167 657.312 145C658.188 145.792 658.625 146.708 658.625 147.75C658.625 147.875 658.604 148.25 658.562 148.875C658.521 149.5 658.125 150.292 657.375 151.25C653.625 156.25 649.625 160.604 645.375 164.312C641.292 167.896 636.604 170.188 631.312 171.188C630.854 171.271 630.354 171.333 629.812 171.375C627.062 171.708 624.292 171.042 621.5 169.375C617.583 167 615.625 163.5 615.625 158.875C615.625 157.167 615.833 155.458 616.25 153.75C617.5 148.292 619.271 142.958 621.562 137.75L628.625 143.25C621.667 152.167 613.917 160.333 605.375 167.75C600.833 171.708 596.667 173.646 592.875 173.562Z" fill="url(#paint10_linear_0_1)"/>
<path d="M650.875 176C650.292 176 649.708 175.875 649.125 175.625C648.083 175.167 647.333 174.458 646.875 173.5C646.542 172.875 646.375 172.208 646.375 171.5C646.375 171 650.75 154 659.5 120.5C659.875 119.292 660.583 118.396 661.625 117.813C662.333 117.438 663.104 117.25 663.938 117.25C665.688 117.25 666.958 118 667.75 119.5C668.125 120.208 668.312 120.958 668.312 121.75C668.312 122.125 668.271 122.521 668.188 122.938L655.188 172.75L647 169.25C650.417 163.75 653.792 158.188 657.125 152.562C660.458 146.938 663.875 141.333 667.375 135.75C669.833 131.583 672.729 127.75 676.062 124.25C680.479 119.833 685.083 117.542 689.875 117.375C693.292 117.417 695.917 118.875 697.75 121.75C698.708 123.625 699.188 125.646 699.188 127.813C699.188 131.188 698.646 134.833 697.562 138.75L697.312 139.688C696.688 142.188 696.021 144.667 695.312 147.125C693.479 153.792 692.375 158.604 692 161.562V161.25C692 161.458 691.979 161.625 691.938 161.75C691.854 162.292 691.771 163.354 691.688 164.938V165.5C691.479 165 691.104 164.562 690.562 164.188C690.229 163.979 689.938 163.875 689.688 163.875L689.5 163.938L690 163.75L690.062 164C690.062 163.958 690.042 163.938 690 163.938V163.75L690.188 163.875C690.479 163.875 691.125 163.667 692.125 163.25C692.292 163.167 692.479 163.104 692.688 163.062L692.312 163.188C692.312 163.146 692.542 163.042 693 162.875L696 161.75L696.85 161.538C696.949 161.513 697.052 161.503 697.155 161.51L697.402 161.525C697.8 161.55 698.193 161.619 698.575 161.73V161.73C699.188 161.909 699.773 162.178 700.262 162.589C700.476 162.768 700.726 162.989 701 163.25C701.917 164.083 702.124 164.375 702.124 165.5C702.124 165.568 702.07 166.566 702.027 167.297C702.01 167.593 701.907 167.877 701.732 168.116V168.116C701.666 168.205 701.591 168.287 701.508 168.36L700.849 168.942C700.617 169.147 700.368 169.329 700.096 169.478C699.11 170.019 696.396 171.415 692.812 172.5C691.854 172.792 690.917 172.938 690 172.938C689.292 172.938 688.354 172.812 687.188 172.562C686.021 172.271 684.938 171.375 683.938 169.875C683.104 168.542 682.688 167.083 682.688 165.5C682.688 163.667 682.833 161.938 683.125 160.312L683.25 159.375C684.042 154.583 685.438 148.833 687.438 142.125C688.604 137.375 689.333 134.313 689.625 132.938C689.667 132.854 689.75 132.354 689.875 131.438C689.958 130.771 690.042 130.396 690.125 130.313L690.062 130.938C690.062 130.688 690.083 130.542 690.125 130.5C690.125 130.083 690.146 129.729 690.188 129.438V127.813L690.125 127.125L690.188 127.563L690.25 127.5C690.25 127.458 690.229 127.396 690.188 127.313C690.188 127.229 690.167 127.125 690.125 127C690.125 126.875 690.104 126.729 690.062 126.563C690.021 126.396 690 126.292 690 126.25L689.938 126.188C689.938 126.229 689.938 126.271 689.938 126.313C689.979 126.354 690 126.438 690 126.563C690.042 126.688 690.104 126.75 690.188 126.75L689.688 125.875L690.125 126.5L690.062 126.438C690.021 126.396 689.979 126.354 689.938 126.313C689.896 126.229 689.854 126.188 689.812 126.188L690 126.25C690.25 126.375 690.396 126.479 690.438 126.563L690 126.313L690.312 126.438L689.875 126.375L689.938 126.313L690.312 126.438C690.146 126.438 690 126.417 689.875 126.375H689.812C689.146 126.458 688.5 126.625 687.875 126.875C687.708 126.875 687.458 126.958 687.125 127.125L687.688 126.813L684.688 128.625C684.604 128.708 684.521 128.771 684.438 128.813H684.375L684.625 128.625L683.938 129.25C683.479 129.625 683.062 130 682.688 130.375C681.396 131.667 680.375 132.792 679.625 133.75C679.417 134.083 679.271 134.25 679.188 134.25L679.5 133.875C679.333 134.083 679.229 134.229 679.188 134.313C679.188 134.354 679.062 134.5 678.812 134.75C676.979 137.458 675.229 140.167 673.562 142.875L673.375 143.125C670.625 147.625 667.896 152.146 665.188 156.688C661.771 162.438 658.292 168.146 654.75 173.812C653.792 175.271 652.5 176 650.875 176Z" fill="url(#paint11_linear_0_1)"/>
<path d="M42 41H736V39H42V41ZM737 42V218H739V42H737ZM736 219H42V221H736V219ZM41 218V42H39V218H41ZM42 219C41.4477 219 41 218.552 41 218H39C39 219.657 40.3431 221 42 221V219ZM737 218C737 218.552 736.552 219 736 219V221C737.657 221 739 219.657 739 218H737ZM736 41C736.552 41 737 41.4477 737 42H739C739 40.3432 737.657 39 736 39V41ZM42 39C40.3431 39 39 40.3432 39 42H41C41 41.4477 41.4477 41 42 41V39Z" fill="black" fill-opacity="0.1"/>
<rect x="40" y="8" width="55.375" height="26" rx="2" fill="#E5E5E5"/>
<rect x="40.5" y="8.5" width="54.375" height="25" rx="1.5" stroke="black" stroke-opacity="0.14902"/>
<path d="M49.3438 18C49.2969 17.6042 49.1068 17.2969 48.7734 17.0781C48.4401 16.8594 48.0313 16.75 47.5469 16.75C47.1927 16.75 46.8828 16.8073 46.6172 16.9219C46.3542 17.0365 46.1484 17.194 46 17.3945C45.8542 17.5951 45.7813 17.8229 45.7813 18.0781C45.7813 18.2917 45.832 18.4753 45.9336 18.6289C46.0378 18.7799 46.1706 18.9062 46.332 19.0078C46.4935 19.1068 46.6628 19.1888 46.8398 19.2539C47.0169 19.3164 47.1797 19.3672 47.3281 19.4062L48.1406 19.625C48.349 19.6797 48.5807 19.7552 48.8359 19.8516C49.0938 19.9479 49.3398 20.0794 49.5742 20.2461C49.8112 20.4102 50.0065 20.6211 50.1602 20.8789C50.3138 21.1367 50.3906 21.4531 50.3906 21.8281C50.3906 22.2604 50.2773 22.651 50.0508 23C49.8268 23.349 49.4987 23.6263 49.0664 23.832C48.6367 24.0378 48.1146 24.1406 47.5 24.1406C46.9271 24.1406 46.431 24.0482 46.0117 23.8633C45.5951 23.6784 45.2669 23.4206 45.0273 23.0898C44.7904 22.7591 44.6563 22.375 44.625 21.9375H45.625C45.651 22.2396 45.7526 22.4896 45.9297 22.6875C46.1094 22.8828 46.3359 23.0286 46.6094 23.125C46.8854 23.2187 47.1823 23.2656 47.5 23.2656C47.8698 23.2656 48.2018 23.2057 48.4961 23.0859C48.7904 22.9635 49.0234 22.7943 49.1953 22.5781C49.3672 22.3594 49.4531 22.1042 49.4531 21.8125C49.4531 21.5469 49.3789 21.3307 49.2305 21.1641C49.082 20.9974 48.8867 20.862 48.6445 20.7578C48.4023 20.6536 48.1406 20.5625 47.8594 20.4844L46.875 20.2031C46.25 20.0234 45.7552 19.7669 45.3906 19.4336C45.026 19.1003 44.8438 18.6641 44.8438 18.125C44.8438 17.6771 44.9648 17.2865 45.207 16.9531C45.4518 16.6172 45.7799 16.3568 46.1914 16.1719C46.6055 15.9844 47.0677 15.8906 47.5781 15.8906C48.0938 15.8906 48.5521 15.9831 48.9531 16.168C49.3542 16.3503 49.6719 16.6003 49.9062 16.918C50.1432 17.2357 50.2682 17.5964 50.2813 18H49.3438ZM54.374 24.125C53.7959 24.125 53.2972 23.9974 52.8779 23.7422C52.4613 23.4844 52.1396 23.125 51.9131 22.6641C51.6891 22.2005 51.5771 21.6615 51.5771 21.0469C51.5771 20.4323 51.6891 19.8906 51.9131 19.4219C52.1396 18.9505 52.4548 18.5833 52.8584 18.3203C53.2646 18.0547 53.7386 17.9219 54.2803 17.9219C54.5928 17.9219 54.9014 17.974 55.2061 18.0781C55.5107 18.1823 55.7881 18.3516 56.0381 18.5859C56.2881 18.8177 56.4873 19.125 56.6357 19.5078C56.7842 19.8906 56.8584 20.362 56.8584 20.9219V21.3125H52.2334V20.5156H55.9209C55.9209 20.1771 55.8532 19.875 55.7178 19.6094C55.585 19.3437 55.3949 19.1341 55.1475 18.9805C54.9027 18.8268 54.6136 18.75 54.2803 18.75C53.9131 18.75 53.5954 18.8411 53.3271 19.0234C53.0615 19.2031 52.8571 19.4375 52.7139 19.7266C52.5706 20.0156 52.499 20.3255 52.499 20.6562V21.1875C52.499 21.6406 52.5771 22.0247 52.7334 22.3398C52.8923 22.6523 53.1123 22.8906 53.3936 23.0547C53.6748 23.2161 54.0016 23.2969 54.374 23.2969C54.6162 23.2969 54.835 23.263 55.0303 23.1953C55.2282 23.125 55.3988 23.0208 55.542 22.8828C55.6852 22.7422 55.7959 22.5677 55.874 22.3594L56.7646 22.6094C56.6709 22.9115 56.5133 23.1771 56.292 23.4062C56.0706 23.6328 55.7972 23.8099 55.4717 23.9375C55.1462 24.0625 54.7803 24.125 54.374 24.125ZM60.6982 24.125C60.1357 24.125 59.6514 23.9922 59.2451 23.7266C58.8389 23.4609 58.5264 23.0951 58.3076 22.6289C58.0889 22.1628 57.9795 21.6302 57.9795 21.0312C57.9795 20.4219 58.0915 19.8841 58.3154 19.418C58.542 18.9492 58.8571 18.5833 59.2607 18.3203C59.667 18.0547 60.141 17.9219 60.6826 17.9219C61.1045 17.9219 61.4847 18 61.8232 18.1562C62.1618 18.3125 62.4391 18.5312 62.6553 18.8125C62.8714 19.0937 63.0055 19.4219 63.0576 19.7969H62.1357C62.0654 19.5234 61.9092 19.2812 61.667 19.0703C61.4274 18.8568 61.1045 18.75 60.6982 18.75C60.3389 18.75 60.0238 18.8437 59.7529 19.0312C59.4847 19.2161 59.2751 19.4779 59.124 19.8164C58.9756 20.1523 58.9014 20.5469 58.9014 21C58.9014 21.4635 58.9743 21.8672 59.1201 22.2109C59.2686 22.5547 59.4769 22.8216 59.7451 23.0117C60.016 23.2018 60.3337 23.2969 60.6982 23.2969C60.9378 23.2969 61.1553 23.2552 61.3506 23.1719C61.5459 23.0885 61.7113 22.9688 61.8467 22.8125C61.9821 22.6562 62.0785 22.4687 62.1357 22.25H63.0576C63.0055 22.6042 62.8766 22.9232 62.6709 23.207C62.4678 23.4883 62.1982 23.7122 61.8623 23.8789C61.529 24.043 61.141 24.125 60.6982 24.125ZM67.0146 18V18.7812H63.9053V18H67.0146ZM64.8115 16.5625H65.7334V22.2812C65.7334 22.5417 65.7712 22.737 65.8467 22.8672C65.9248 22.9948 66.0238 23.0807 66.1436 23.125C66.266 23.1667 66.3949 23.1875 66.5303 23.1875C66.6318 23.1875 66.7152 23.1823 66.7803 23.1719C66.8454 23.1589 66.8975 23.1484 66.9365 23.1406L67.124 23.9687C67.0615 23.9922 66.9743 24.0156 66.8623 24.0391C66.7503 24.0651 66.6084 24.0781 66.4365 24.0781C66.1761 24.0781 65.9209 24.0221 65.6709 23.9102C65.4235 23.7982 65.2178 23.6276 65.0537 23.3984C64.8923 23.1693 64.8115 22.8802 64.8115 22.5312V16.5625ZM68.4014 24V18H69.3232V24H68.4014ZM68.8701 17C68.6904 17 68.5355 16.9388 68.4053 16.8164C68.2777 16.694 68.2139 16.5469 68.2139 16.375C68.2139 16.2031 68.2777 16.056 68.4053 15.9336C68.5355 15.8112 68.6904 15.75 68.8701 15.75C69.0498 15.75 69.2035 15.8112 69.3311 15.9336C69.4613 16.056 69.5264 16.2031 69.5264 16.375C69.5264 16.5469 69.4613 16.694 69.3311 16.8164C69.2035 16.9388 69.0498 17 68.8701 17ZM73.4492 24.125C72.9076 24.125 72.4323 23.9961 72.0234 23.7383C71.6172 23.4805 71.2995 23.1198 71.0703 22.6562C70.8438 22.1927 70.7305 21.651 70.7305 21.0312C70.7305 20.4062 70.8438 19.8607 71.0703 19.3945C71.2995 18.9284 71.6172 18.5664 72.0234 18.3086C72.4323 18.0508 72.9076 17.9219 73.4492 17.9219C73.9909 17.9219 74.4648 18.0508 74.8711 18.3086C75.2799 18.5664 75.5977 18.9284 75.8242 19.3945C76.0534 19.8607 76.168 20.4062 76.168 21.0312C76.168 21.651 76.0534 22.1927 75.8242 22.6562C75.5977 23.1198 75.2799 23.4805 74.8711 23.7383C74.4648 23.9961 73.9909 24.125 73.4492 24.125ZM73.4492 23.2969C73.8607 23.2969 74.1992 23.1914 74.4648 22.9805C74.7305 22.7695 74.9271 22.4922 75.0547 22.1484C75.1823 21.8047 75.2461 21.4323 75.2461 21.0312C75.2461 20.6302 75.1823 20.2565 75.0547 19.9102C74.9271 19.5638 74.7305 19.2839 74.4648 19.0703C74.1992 18.8568 73.8607 18.75 73.4492 18.75C73.0378 18.75 72.6992 18.8568 72.4336 19.0703C72.168 19.2839 71.9714 19.5638 71.8438 19.9102C71.7161 20.2565 71.6523 20.6302 71.6523 21.0312C71.6523 21.4323 71.7161 21.8047 71.8438 22.1484C71.9714 22.4922 72.168 22.7695 72.4336 22.9805C72.6992 23.1914 73.0378 23.2969 73.4492 23.2969ZM78.4971 20.3906V24H77.5752V18H78.4658V18.9375H78.5439C78.6846 18.6328 78.8981 18.388 79.1846 18.2031C79.471 18.0156 79.8408 17.9219 80.2939 17.9219C80.7002 17.9219 81.0557 18.0052 81.3604 18.1719C81.665 18.3359 81.902 18.5859 82.0713 18.9219C82.2406 19.2552 82.3252 19.6771 82.3252 20.1875V24H81.4033V20.25C81.4033 19.7786 81.2809 19.4115 81.0361 19.1484C80.7913 18.8828 80.4554 18.75 80.0283 18.75C79.734 18.75 79.471 18.8138 79.2393 18.9414C79.0101 19.069 78.8291 19.2552 78.6963 19.5C78.5635 19.7448 78.4971 20.0417 78.4971 20.3906ZM89.9004 16V24H88.9316V17.0156H88.8848L86.9316 18.3125V17.3281L88.9316 16H89.9004Z" fill="black"/>
<defs>
<linearGradient id="paint0_linear_0_1" x1="703.5" y1="159.5" x2="705.5" y2="157.5" gradientUnits="userSpaceOnUse">
<stop offset="0.317708" stop-color="#5C7AEE"/>
<stop offset="1" stop-color="#D1AAD7"/>
</linearGradient>
<linearGradient id="paint1_linear_0_1" x1="700" y1="163" x2="703" y2="160" gradientUnits="userSpaceOnUse">
<stop stop-color="#27C6F9"/>
<stop offset="0.729167" stop-color="#0EB2E6"/>
</linearGradient>
<linearGradient id="paint2_linear_0_1" x1="392.656" y1="82.5" x2="392.656" y2="180.5" gradientUnits="userSpaceOnUse">
<stop stop-color="#7DD3FC"/>
<stop offset="1" stop-color="#0E648C"/>
</linearGradient>
<linearGradient id="paint3_linear_0_1" x1="392.656" y1="82.5" x2="392.656" y2="180.5" gradientUnits="userSpaceOnUse">
<stop stop-color="#7DD3FC"/>
<stop offset="1" stop-color="#0E648C"/>
</linearGradient>
<linearGradient id="paint4_linear_0_1" x1="392.656" y1="82.5" x2="392.656" y2="180.5" gradientUnits="userSpaceOnUse">
<stop stop-color="#7DD3FC"/>
<stop offset="1" stop-color="#0E648C"/>
</linearGradient>
<linearGradient id="paint5_linear_0_1" x1="392.656" y1="82.5" x2="392.656" y2="180.5" gradientUnits="userSpaceOnUse">
<stop stop-color="#7DD3FC"/>
<stop offset="1" stop-color="#0E648C"/>
</linearGradient>
<linearGradient id="paint6_linear_0_1" x1="392.656" y1="82.5" x2="392.656" y2="180.5" gradientUnits="userSpaceOnUse">
<stop stop-color="#7DD3FC"/>
<stop offset="1" stop-color="#0E648C"/>
</linearGradient>
<linearGradient id="paint7_linear_0_1" x1="392.656" y1="82.5" x2="392.656" y2="180.5" gradientUnits="userSpaceOnUse">
<stop stop-color="#7DD3FC"/>
<stop offset="1" stop-color="#0E648C"/>
</linearGradient>
<linearGradient id="paint8_linear_0_1" x1="392.656" y1="82.5" x2="392.656" y2="180.5" gradientUnits="userSpaceOnUse">
<stop stop-color="#7DD3FC"/>
<stop offset="1" stop-color="#0E648C"/>
</linearGradient>
<linearGradient id="paint9_linear_0_1" x1="392.656" y1="82.5" x2="392.656" y2="180.5" gradientUnits="userSpaceOnUse">
<stop stop-color="#7DD3FC"/>
<stop offset="1" stop-color="#0E648C"/>
</linearGradient>
<linearGradient id="paint10_linear_0_1" x1="392.656" y1="82.5" x2="392.656" y2="180.5" gradientUnits="userSpaceOnUse">
<stop stop-color="#7DD3FC"/>
<stop offset="1" stop-color="#0E648C"/>
</linearGradient>
<linearGradient id="paint11_linear_0_1" x1="392.656" y1="82.5" x2="392.656" y2="180.5" gradientUnits="userSpaceOnUse">
<stop stop-color="#7DD3FC"/>
<stop offset="1" stop-color="#0E648C"/>
</linearGradient>
</defs>
</svg>
