<svg width="1630" height="1125" viewBox="0 0 1630 1125" fill="none" xmlns="http://www.w3.org/2000/svg">
<path d="M64 1H840M1 218L724.573 300.235C732.77 301.167 736.377 311.066 730.699 317.052L417.931 646.855C415.495 649.424 411.883 650.513 408.433 649.719L13.8991 558.967C7.43071 557.479 4.18 550.218 7.37867 544.402L85.8417 401.742C87.7596 398.255 91.5629 396.237 95.5258 396.604L1112.29 490.749C1114.07 490.913 1115.71 491.507 1117.15 492.546C1286.03 613.857 1621.33 850.652 1628.5 839.5C1637.5 825.5 940 1149 935 1122C931 1100.4 619.667 1042.33 464.5 1016" stroke="black"/>
</svg>
