<svg width="347" height="257" viewBox="0 0 347 257" fill="none" xmlns="http://www.w3.org/2000/svg">
<path d="M3 74.5L38.123 6.34459C41.3933 -0.00135423 50.0685 -0.975143 54.6644 4.48784L69.1523 21.7093C70.6686 23.5117 71.5 25.7915 71.5 28.1469V64.5C71.5 70.0228 75.9772 74.5 81.5 74.5H104.76C109.766 74.5 114 70.7994 114.67 65.8392L118.402 38.2237C118.467 37.7419 118.567 37.2655 118.702 36.7982L123.604 19.7558C125.858 11.9236 136.031 9.93118 141.072 16.3348L145.357 21.7783C146.745 23.5414 147.5 25.72 147.5 27.9639V64.5C147.5 70.0228 151.977 74.5 157.5 74.5H166.627C171.011 74.5 174.884 71.6447 176.18 67.4568L186.553 33.9446C186.849 32.987 187 31.9902 187 30.9878V18.0542C187 10.4159 195.217 5.59767 201.883 9.32732L223.883 21.6368C227.043 23.4049 229 26.7428 229 30.3637V51.4569C229 54.3437 230.247 57.0896 232.422 58.9886L262.739 85.4683C266.139 88.4382 271.108 88.7614 274.864 86.2571L288.047 77.4687C290.829 75.614 292.5 72.4917 292.5 69.1482V24.5M0.5 165C0.5 152.167 0.5 126.2 0.5 125C0.5 123.5 3.5 102.5 6.5 102C9.5 101.5 16.5 95.5 21 95C25.5 94.5 26 112 26 116.5C26 121 29 133.5 29 141.5C29 149.5 29.5 168 32.5 169C35.5 170 49 180 50.5 172.5C52 165 63 159 62.5 152C62 145 59.5 136.5 55 128C50.5 119.5 48 120 50.5 112.5C53 105 51.5 98 62.5 97.5C73.5 97 87.5 101 89 104.5C90.5 108 91 130 86 130C81 130 71.5 142.5 71.5 144.5C71.5 146.5 80.5 158 81.5 160.5C82.5 163 91 169 94.5 169C98 169 115 155 115.5 152C116 149 116 136 113.5 134C111 132 106 122 105.5 116.5C105 111 109 102 115.5 102C122 102 144 106.5 144 108.5C144 110.5 144 132 144 134C144 136 143 159 144 160.5C145 162 171 174 172.5 169.5C174 165 180 156 178 148C176 140 168.5 127.5 167.5 122C166.5 116.5 165 110 173 106C181 102 204.5 99.5 206.5 102C208.059 103.948 210.376 123.136 211.42 133.217C211.474 133.741 211.485 134.262 211.456 134.788C210.961 143.892 210.335 161.504 211.5 165C213 169.5 233 185.5 237.5 181C242 176.5 251.5 182 252 165C252.5 148 250 138 246.5 134C243 130 235.5 117.5 236.5 115C237.5 112.5 255.5 102 262 102C268.5 102 295.5 116.5 296 116.5C296.5 116.5 302 141 302 144.5C302 148 302 161 302 165C302 169 329 175.5 327.5 174C326 172.5 325.5 154.5 325.5 148C325.5 142.8 324.5 129.833 324 124M0.5 256C1.16667 249.833 2.5 236.7 2.5 233.5C2.5 229.5 0.5 215.5 0.5 213.5C0.5 211.5 8 201.5 11 204C14 206.5 18.5 215.5 17 220.5C15.8 224.5 14.5 232.5 14 236C13 240 11.6 248 14 248C17 248 29 253 29 251.5C29 250 26 238.5 26 236C26 233.5 27.5 226 29 220.5C30.5 215 30.5 211 32.5 209C34.5 207 41.5 204.5 42 209C42.5 213.5 44 219.5 42 223.5C40 227.5 39 231 39 233.5C39 235.186 40.421 241.49 41.4664 245.825C41.8122 247.259 42.4591 248.618 43.51 249.653C45.1107 251.229 47.12 252.673 48 251.5C49.5 249.5 56.5 241 55 239C53.5 237 50.5 228.5 50.5 226C50.5 224.36 50.5 219.247 50.5 215.621C50.5 214.222 50.7527 212.811 51.5309 211.648C52.4191 210.321 53.6728 209 55 209C56.5983 209 61.0708 213.897 64.3339 217.82C65.7625 219.537 66.5 221.713 66.5 223.947C66.5 226.298 66.5 228.976 66.5 230.5C66.5 233.5 64 244.5 64.5 246C64.6334 246.4 65.2155 246.997 66.0125 247.664C69.1206 250.266 74.0432 250.287 76.4923 247.057C76.809 246.64 77 246.274 77 246C77 244.5 75 236.5 75 233.5C75 230.5 77 227.5 77 220.5C77 213.5 77 209 81.5 209C86 209 93 208.5 94.5 211.5C96 214.5 89.5 224.5 89 226C88.5 227.5 83.5 233.5 84.5 237C85.3 239.8 89.5 245.5 91.5 248C93.1667 250.333 96.6 254.3 97 251.5C97.5 248 99.5 241 97 233.5C94.5 226 94 225 95.5 222C97 219 100.5 211.5 102 211.5C103.5 211.5 113.5 220.5 113.5 222C113.5 223.5 114.5 237.5 113.5 239C112.5 240.5 110.5 248.5 112 250C113.5 251.5 128 255 127.5 251.5C127 248 122.5 241.5 122.5 236C122.5 230.5 122.5 228.5 122.5 223.5C122.5 218.5 124.5 214.5 126 213C127.5 211.5 132.5 206 137 211.5C141.5 217 140.5 230 140 233.5C139.5 237 138.5 241 140 244C141.5 247 143 257 149.5 251.5C156 246 164 242 163 239C162 236 158.5 230 157 226C155.5 222 152 214.5 154.5 213C157 211.5 164.5 208.5 166 210C167.5 211.5 178 221 178 223.5C178 225.5 177 236 176.5 241C176.167 243.333 176 248 178 248C180.5 248 185 252 187.5 248C190 244 194.5 235 192.5 230.5C190.5 226 187.5 225 187.5 220.5C187.5 216 192.5 209 196 209C199.5 209 207 210.5 207.5 213C208 215.5 207 226 206.5 229C206 232 202.5 236 204.5 241C206.5 246 211 248 216 248C221 248 228.5 246 226.5 241C224.5 236 216 231.5 216 226C216 220.5 218 210 220 210C222 210 231.5 207.5 232.5 211.5C233.5 215.5 228.5 222 232.5 229C236.5 236 235.5 240 236.5 244C237.5 248 244 259 246.5 251.5C249 244 252.5 242 249.5 239C246.5 236 245.5 231.5 244 226C242.5 220.5 243.5 215.5 246.5 213.5C249.5 211.5 259.5 206.5 261 210C262.5 213.5 262.5 224.5 263 229C263.5 233.5 261 238 263 241C265 244 269 255 274.5 251.5C280 248 287.5 248.5 285 241C282.5 233.5 280 231.5 278.5 226C277 220.5 272 220.5 278.5 216C285 211.5 292 207 296 211.5C300 216 302 224.5 302 229C302 233.5 302 234 303.5 240C305 246 300.5 247 309.5 251.5C318.5 256 332.5 252 332 248C331.5 244 326.5 235 324 230.5C321.5 226 320.5 223.5 324 222C327.5 220.5 336 216 340 216C344 216 350.5 214 343 209C335.5 204 320.5 198 316 204C311.5 210 309.5 222 311 222C312.2 222 331.833 225.333 341.5 227" stroke="black"/>
</svg>
